<svg xmlns="http://www.w3.org/2000/svg" viewBox="0 0 1660 1125" width="1660" height="1125" preserveAspectRatio="xMidYMid meet" role="group" class="beef-map" aria-labelledby="beef-title beef-desc">
  <title id="beef-title">CutLink Beef Cuts</title>
  <desc id="beef-desc">Beef cut selector. All original cut IDs, keys and names retained. Body cut regions are schematic; visible coloured paths are also the interactive geometry.</desc>
  <style>.beef-map{max-width:100%;height:auto}.beef-map .cut-hit{cursor:pointer;outline:none}.beef-map .surface{transition:filter .14s ease,fill .14s ease}.beef-map .cut-hit:hover .surface{filter:brightness(.93)}.beef-map .cut-hit:focus .surface,.beef-map .cut-hit.is-selected .surface{fill:#d8b0b3}@media(prefers-reduced-motion:reduce){.beef-map .surface{transition:none}}</style>
  <rect width="1660" height="1125" fill="white" pointer-events="none"/>
  <path d="M1320.75,959.92 C1319.79,959.36 1319.00,958.02 1319.00,956.95 C1319.00,955.21 1318.28,955.00 1312.20,955.00 C1304.85,955.00 1303.00,954.03 1303.00,950.20 C1303.00,947.73 1311.64,930.75 1317.85,921.00 C1319.78,917.98 1322.59,913.02 1324.09,910.00 C1325.59,906.98 1329.14,901.80 1331.98,898.50 C1344.42,884.06 1345.26,880.64 1344.05,849.42 C1343.26,829.00 1342.75,823.96 1340.52,815.00 C1334.92,792.46 1328.31,774.53 1320.99,761.98 C1318.89,758.39 1313.46,750.97 1308.92,745.48 C1298.98,733.48 1294.40,726.49 1285.60,709.98 C1279.54,698.60 1272.05,688.00 1270.06,688.00 C1269.64,688.00 1269.01,690.63 1268.67,693.85 C1267.84,701.78 1263.63,712.78 1252.55,735.96 C1239.06,764.19 1229.42,791.52 1220.62,826.50 C1215.51,846.82 1214.71,852.32 1215.46,862.07 C1216.29,872.83 1214.93,878.55 1210.24,884.03 L1206.69,888.17 1199.66,887.84 C1192.63,887.50 1192.61,887.51 1190.31,890.90 C1188.38,893.74 1188.00,895.59 1188.00,902.19 C1188.00,912.17 1186.37,915.52 1176.73,925.43 C1168.48,933.90 1167.52,934.29 1150.33,936.07 C1138.69,937.27 1103.83,936.91 1100.75,935.56 C1099.79,935.13 1099.00,933.71 1099.00,932.39 C1099.00,930.23 1098.58,930.00 1094.55,930.00 C1092.10,930.00 1088.91,929.46 1087.46,928.80 C1082.70,926.63 1084.87,921.98 1099.90,902.16 C1104.63,895.92 1109.72,889.13 1111.21,887.07 C1112.69,885.01 1118.74,878.87 1124.63,873.41 C1136.89,862.08 1141.88,855.05 1145.00,844.74 C1146.21,840.76 1150.25,830.75 1153.97,822.50 C1164.03,800.24 1168.60,781.64 1171.05,752.88 C1172.21,739.31 1172.05,735.32 1169.45,713.00 C1166.21,685.18 1164.95,681.63 1152.09,664.08 C1140.88,648.78 1133.88,633.52 1123.02,600.75 C1119.61,590.44 1116.69,582.00 1116.55,582.00 C1116.41,582.00 1107.12,586.46 1095.90,591.90 C1072.49,603.27 1051.41,611.80 1021.50,622.01 C998.67,629.81 983.38,635.92 964.00,645.01 C947.86,652.59 942.76,654.04 930.00,654.70 C917.22,655.35 902.08,653.79 850.00,646.44 C805.26,640.12 794.74,638.33 747.50,628.97 C705.92,620.74 691.09,618.31 677.00,617.43 C661.44,616.46 641.53,619.30 632.20,623.82 L628.74,625.50 625.49,641.53 C623.70,650.34 619.30,668.79 615.70,682.53 C609.82,705.03 609.12,708.74 608.65,720.00 C608.08,733.72 606.17,742.04 600.95,753.53 C596.51,763.31 596.09,765.05 595.01,778.00 C593.04,801.69 598.98,850.13 605.74,865.50 C608.87,872.62 609.29,882.28 606.72,888.24 C604.54,893.31 599.49,895.79 594.49,894.26 C591.30,893.28 590.80,893.39 589.58,895.33 C587.03,899.41 586.86,904.32 589.04,911.08 C591.93,920.03 591.12,924.56 584.93,934.05 C578.85,943.39 574.68,947.49 569.43,949.35 C561.58,952.12 546.81,953.48 525.00,953.43 C502.38,953.39 499.00,952.81 499.00,948.96 C499.00,947.28 498.30,947.00 494.07,947.00 C486.91,947.00 484.00,945.65 484.00,942.33 C484.00,939.32 488.89,930.59 499.04,915.50 C502.74,910.00 506.51,904.03 507.41,902.24 C508.32,900.45 512.44,895.28 516.57,890.74 C526.16,880.21 529.03,874.44 530.23,863.18 C530.74,858.41 532.25,848.52 533.58,841.20 C537.61,819.06 536.48,794.05 530.63,775.60 C528.55,769.06 518.57,751.19 516.92,751.05 C516.60,751.02 514.73,754.71 512.76,759.25 C509.12,767.66 507.10,776.68 504.86,794.50 C503.42,806.00 503.10,846.89 504.37,858.00 C505.43,867.20 504.16,872.61 499.78,877.60 C496.93,880.84 496.27,881.13 492.57,880.67 C490.33,880.40 487.30,879.87 485.83,879.49 C481.73,878.43 479.71,883.17 479.59,894.07 C479.49,904.02 478.36,906.28 468.35,916.65 C460.95,924.32 456.96,925.65 437.25,927.05 C421.44,928.17 394.72,926.84 392.27,924.81 C391.50,924.17 391.08,922.82 391.34,921.82 C391.74,920.27 391.18,920.00 387.47,920.00 C381.26,920.00 377.99,918.54 378.03,915.77 C378.07,913.05 386.07,901.15 395.01,890.51 C398.58,886.27 403.30,880.39 405.50,877.43 C407.70,874.48 412.88,869.43 417.00,866.21 C429.39,856.52 433.20,851.22 436.55,839.00 C437.53,835.42 440.30,827.44 442.69,821.26 C448.44,806.45 450.26,794.44 449.79,774.50 C449.45,759.89 449.35,759.32 446.10,752.50 C439.15,737.96 437.87,731.68 437.00,708.00 C436.25,687.58 436.01,685.70 432.21,670.50 C430.01,661.70 427.90,652.62 427.53,650.31 C426.87,646.26 426.56,645.97 417.67,641.04 C398.22,630.26 383.52,616.23 369.65,595.22 C365.03,588.23 357.61,578.54 353.17,573.70 C340.88,560.32 333.31,548.02 327.65,532.25 C323.47,520.62 321.17,510.38 317.53,487.23 C310.97,445.43 304.35,421.18 292.93,397.12 C290.22,391.41 288.00,386.18 288.00,385.49 C288.00,384.81 287.26,383.63 286.36,382.89 C285.46,382.14 280.71,375.45 275.81,368.01 C265.58,352.52 261.19,348.01 254.07,345.71 C249.73,344.31 247.86,344.24 241.08,345.23 C226.19,347.40 212.32,344.13 195.18,334.42 C186.95,329.76 183.37,328.82 167.00,327.07 C161.78,326.50 154.89,325.36 151.70,324.52 C148.51,323.69 142.78,323.00 138.97,323.00 C133.00,323.00 131.13,323.48 125.60,326.41 C113.05,333.07 99.98,333.51 87.87,327.69 C84.92,326.27 81.15,324.83 79.50,324.49 C77.69,324.11 74.51,321.77 71.50,318.60 C67.70,314.61 65.57,313.19 62.65,312.72 C57.40,311.87 53.01,308.25 49.47,301.87 C46.79,297.02 46.49,295.57 46.40,286.96 C46.35,281.72 45.73,275.06 45.04,272.17 C44.06,268.08 44.04,265.89 44.96,262.21 C47.41,252.36 52.65,246.39 65.37,238.94 C73.12,234.40 82.02,224.64 99.94,201.00 C108.07,190.28 116.36,179.54 118.36,177.16 C121.71,173.16 122.00,172.30 122.00,166.45 C122.00,162.96 122.49,157.82 123.09,155.03 L124.17,149.97 119.30,144.63 C113.58,138.38 104.68,123.35 103.04,117.19 C100.72,108.48 106.42,102.90 123.00,97.63 C139.56,92.37 147.08,93.44 166.10,103.74 C166.43,103.92 168.31,102.10 170.28,99.70 L173.86,95.34 167.68,88.87 C158.69,79.46 153.03,66.91 153.01,56.32 C153.00,50.88 154.67,48.00 157.83,48.00 C158.76,48.00 162.66,51.23 166.51,55.17 C172.21,61.02 175.22,63.16 182.84,66.78 C193.19,71.69 196.59,72.13 204.98,69.63 C209.45,68.29 211.53,68.19 216.30,69.05 C220.63,69.84 223.55,69.80 227.60,68.89 C230.60,68.22 232.91,67.41 232.73,67.08 C225.81,54.78 224.08,43.06 228.96,41.51 C231.45,40.72 232.85,41.50 243.45,49.49 C252.76,56.52 257.55,59.20 268.50,63.52 C276.80,66.81 281.98,70.30 284.94,74.61 C287.79,78.78 289.28,84.43 288.49,88.07 C287.89,90.80 288.15,91.14 292.32,92.92 L296.80,94.84 301.41,90.43 C307.62,84.48 316.07,80.41 326.40,78.38 C334.72,76.74 335.36,76.76 347.76,78.85 C354.79,80.03 362.04,81.00 363.87,81.00 C368.28,81.00 373.41,83.52 374.98,86.46 C376.89,90.04 375.80,100.45 372.71,107.96 C370.92,112.34 370.41,114.64 371.15,115.10 C371.75,115.47 376.27,116.29 381.20,116.92 C386.12,117.55 392.48,118.95 395.33,120.03 C398.37,121.19 402.97,122.00 406.50,122.01 C409.80,122.01 419.48,123.61 428.00,125.55 C453.84,131.45 462.20,132.91 484.80,135.43 C510.81,138.34 521.51,140.44 542.00,146.63 L557.50,151.31 605.50,152.05 C657.07,152.85 656.75,152.82 700.00,159.92 C746.16,167.49 779.51,169.50 845.00,168.68 C900.32,167.98 945.96,165.85 1011.00,160.94 C1060.95,157.17 1079.02,155.08 1148.00,145.08 C1193.86,138.43 1200.16,137.79 1223.00,137.48 C1234.38,137.33 1247.70,136.50 1255.00,135.50 C1275.21,132.72 1297.33,135.09 1309.76,141.37 C1312.37,142.69 1317.20,144.32 1320.50,144.99 C1328.80,146.69 1337.19,150.23 1343.01,154.51 C1347.94,158.13 1360.10,172.43 1366.58,182.25 C1376.40,197.11 1385.23,217.88 1390.54,238.60 C1396.22,260.74 1407.91,335.48 1417.05,408.00 C1426.61,483.90 1426.86,484.98 1440.76,510.76 C1446.67,521.73 1446.88,522.85 1442.25,518.68 C1441.01,517.56 1440.00,516.99 1440.00,517.40 C1440.00,519.00 1448.14,531.97 1453.47,538.87 C1464.60,553.28 1469.34,561.06 1472.56,570.18 C1474.15,574.69 1472.81,575.30 1469.78,571.45 C1466.23,566.93 1466.83,569.54 1470.62,575.11 C1476.03,583.06 1481.61,595.46 1484.57,606.11 C1486.57,613.34 1487.27,618.49 1487.58,628.50 L1487.98,641.50 1485.43,633.65 C1484.02,629.33 1482.63,626.03 1482.34,626.33 C1482.04,626.63 1482.35,630.16 1483.04,634.18 C1485.57,649.13 1483.59,674.88 1478.67,691.00 L1477.30,695.50 1476.58,690.50 C1475.38,682.28 1474.71,682.10 1473.86,689.77 C1471.99,706.55 1464.88,727.18 1459.17,732.34 C1457.35,733.99 1457.27,733.83 1456.67,727.38 C1455.62,716.12 1452.85,702.63 1451.89,704.14 C1451.42,704.89 1451.01,707.30 1450.99,709.50 C1450.96,712.85 1447.87,722.00 1446.76,722.00 C1446.58,722.00 1446.36,720.29 1446.27,718.20 C1445.94,709.75 1436.65,685.60 1429.36,674.22 C1427.34,671.07 1425.06,666.99 1424.29,665.14 C1421.78,659.16 1421.87,662.51 1424.43,670.57 C1425.80,674.88 1426.75,678.58 1426.54,678.79 C1426.34,679.00 1423.84,675.87 1421.00,671.83 C1412.10,659.18 1403.80,639.86 1400.89,625.00 C1399.86,619.76 1399.49,618.98 1398.95,621.00 L1398.28,623.50 1397.20,620.84 C1394.61,614.46 1393.00,602.52 1393.00,589.63 C1393.00,579.97 1392.66,576.05 1391.79,575.76 C1390.88,575.46 1391.29,570.56 1393.46,555.93 C1398.30,523.38 1397.20,496.85 1387.40,409.50 C1385.98,396.85 1384.72,386.40 1384.61,386.28 C1384.49,386.16 1383.86,395.16 1383.21,406.28 C1380.81,447.05 1375.84,471.03 1359.64,520.00 C1356.09,530.73 1352.47,543.74 1351.60,548.93 C1346.12,581.27 1354.76,608.98 1379.19,637.46 C1392.76,653.27 1394.47,658.83 1393.52,684.00 C1392.34,715.40 1399.25,773.36 1411.01,830.55 C1415.00,850.00 1416.42,855.05 1420.24,863.50 C1422.76,869.08 1423.40,871.82 1423.38,877.00 C1423.35,889.84 1419.24,895.63 1410.97,894.50 C1406.78,893.92 1406.29,894.08 1405.27,896.30 C1402.87,901.56 1402.76,907.35 1404.92,913.51 C1406.07,916.78 1407.00,921.92 1407.00,924.99 C1407.00,929.72 1406.35,931.70 1402.63,938.21 C1393.35,954.49 1389.60,956.95 1370.00,959.56 C1357.79,961.19 1323.36,961.44 1320.75,959.92 Z" fill="#FBF3E7" pointer-events="none"/>
  <g id="cut-neck" class="cut-hit neck" data-cut="neck" data-animal="Beef" aria-label="Neck" role="button" tabindex="0" aria-pressed="false">
    <title>Neck</title>
    <path d="M 460 140 L 306 149 L 282.5293 260.76758 A 65 31 0 0 1 295 279 A 65 31 0 0 1 273.92969 301.71484 L 264 349 L 269.40234 358.75586 C 271.29487 361.32091 273.36937 364.3134 275.81055 368.00977 C 280.71053 375.44975 285.45938 382.14064 286.35938 382.89062 C 287.25936 383.63062 288 384.81025 288 385.49023 C 288 386.18023 290.21969 391.40916 292.92969 397.11914 C 295.55221 402.64437 297.86539 408.223 300.03906 413.97852 L 450 330 L 460 140 z " fill="#E9D8CA" stroke="white" stroke-width="3" pointer-events="visibleFill" class="surface" data-hit-shape="true"/>
  </g>
  <g id="cut-shoulder" class="cut-hit shoulder" data-cut="shoulder" data-animal="Beef" aria-label="Shoulder" role="button" tabindex="0" aria-pressed="false">
    <title>Shoulder</title>
    <path d="M 450 330 L 300.03906 413.97852 C 304.02226 424.52535 307.3238 436.27201 310.3457 449.5918 L 325 500 L 430 580 L 550 450 L 450 330 z " fill="#FED2BF" stroke="white" stroke-width="3" pointer-events="visibleFill" class="surface" data-hit-shape="true"/>
  </g>
  <g id="cut-chuck" class="cut-hit chuck" data-cut="chuck" data-animal="Beef" aria-label="Chuck" role="button" tabindex="0" aria-pressed="false">
    <title>Chuck</title>
    <path d="M 460 140 L 450 330 L 550 450 L 690 430 L 690 160 L 597.09375 151.92188 L 557.5 151.31055 L 544.32422 147.33203 L 460 140 z " fill="#FEE0B0" stroke="white" stroke-width="3" pointer-events="visibleFill" class="surface" data-hit-shape="true"/>
  </g>
  <g id="cut-blade" class="cut-hit blade" data-cut="blade" data-animal="Beef" aria-label="Blade" role="button" tabindex="0" aria-pressed="false">
    <title>Blade</title>
    <path d="M 690 430 L 550 450 L 430 580 L 680 590 L 690 430 z " fill="#CEC0E0" stroke="white" stroke-width="3" pointer-events="visibleFill" class="surface" data-hit-shape="true"/>
  </g>
  <g id="cut-brisket" class="cut-hit brisket" data-cut="brisket" data-animal="Beef" aria-label="Brisket" role="button" tabindex="0" aria-pressed="false">
    <title>Brisket</title>
    <path d="M 325 500 L 356.44531 577.68945 C 360.76493 582.87138 365.95629 589.63158 369.65039 595.2207 C 382.56391 614.78184 396.35887 628.15456 413.875 638.625 L 493 665 L 625 615 L 680 590 L 430 580 L 325 500 z " fill="#BDDFF2" stroke="white" stroke-width="3" pointer-events="visibleFill" class="surface" data-hit-shape="true"/>
  </g>
  <g id="cut-front-shank" class="cut-hit shin-shank" data-cut="shin-shank" data-animal="Beef" aria-label="Shin / Shank" role="button" tabindex="0" aria-pressed="false">
    <title>Shin / Shank</title>
    <path d="M 607.08008 734.45898 L 505 744 L 511.0918 764.50586 C 511.66971 762.84252 512.08116 760.81787 512.75977 759.25 C 514.72975 754.71 516.59992 751.02078 516.91992 751.05078 C 518.56992 751.19078 528.55086 769.05963 530.63086 775.59961 C 536.42101 793.86086 537.54841 818.53326 533.66406 840.50391 L 535 845 L 532.46484 848.51172 C 531.58455 853.96957 530.5708 859.99661 530.23047 863.17969 C 529.03047 874.43967 526.16029 880.21025 516.57031 890.74023 C 512.44033 895.28023 508.32016 900.45025 507.41016 902.24023 C 506.51016 904.03023 502.73906 910.00002 499.03906 915.5 C 496.63517 919.07386 495.49255 921.13112 493.67383 924 L 589.83984 924 C 590.95458 919.98163 590.70496 916.23916 589.03906 911.08008 C 586.85906 904.32008 587.03008 899.41006 589.58008 895.33008 C 590.80008 893.39008 591.30025 893.27977 594.49023 894.25977 C 599.49023 895.78975 604.54072 893.31023 606.7207 888.24023 C 609.2907 882.28025 608.87023 872.61998 605.74023 865.5 C 598.98025 850.13004 593.03977 801.68996 595.00977 778 C 596.08975 765.05002 596.50922 763.30928 600.94922 753.5293 C 604.06 746.682 605.90339 740.86846 607.08008 734.45898 z " fill="#D0DEC8" stroke="white" stroke-width="3" pointer-events="visibleFill" class="surface" data-hit-shape="true"/>
    <rect x="701" y="789" width="197" height="68" rx="14" fill="white" stroke="#082A54" stroke-width="2" pointer-events="visibleFill" class="surface" data-hit-shape="true"/>
    <text x="799.5" y="832" font-family="Arial, Helvetica, sans-serif" font-size="23" font-weight="700" text-anchor="middle" fill="#082A54" pointer-events="none">Shin / Shank</text>
  </g>
  <g id="cut-ribs" class="cut-hit ribs" data-cut="ribs" data-animal="Beef" aria-label="Ribs" role="button" tabindex="0" aria-pressed="false">
    <title>Ribs</title>
    <path d="M 690 160 L 690 430 L 952 450 L 940 170 L 881.00586 167.64062 C 869.11262 167.96239 857.55011 168.52088 845 168.67969 C 781.84917 169.4704 748.38732 167.50788 704.70312 160.58789 L 690 160 z M 819 223 A 73 31 0 0 1 892 254 A 73 31 0 0 1 746 254 A 73 31 0 0 1 819 223 z " fill="#FCBFC4" stroke="white" stroke-width="3" pointer-events="visibleFill" class="surface" data-hit-shape="true"/>
  </g>
  <g id="cut-plate" class="cut-hit plate" data-cut="plate" data-animal="Beef" aria-label="Plate" role="button" tabindex="0" aria-pressed="false">
    <title>Plate</title>
    <path d="M 690 430 L 680 590 L 625 615 L 652.34375 618.55859 C 660.41149 617.41294 669.24498 616.94624 677 617.42969 C 691.08998 618.30969 705.92008 620.74072 747.5 628.9707 C 762.62497 631.96752 770.99306 633.45298 780.91797 635.29492 L 930 654.69922 L 930.00391 654.69922 C 933.93973 654.49556 937.11139 654.12616 940.13867 653.61523 L 952 450 L 690 430 z M 802 563 A 69 27 0 0 1 871 590 A 69 27 0 0 1 733 590 A 69 27 0 0 1 802 563 z " fill="#FEE0B0" stroke="white" stroke-width="3" pointer-events="visibleFill" class="surface" data-hit-shape="true"/>
  </g>
  <g id="cut-loin" class="cut-hit loin" data-cut="loin" data-animal="Beef" aria-label="Loin" role="button" tabindex="0" aria-pressed="false">
    <title>Loin</title>
    <path d="M 1130 153 L 940 170 L 952 450 L 1140 420 L 1130 153 z " fill="#FED2BF" stroke="white" stroke-width="3" pointer-events="visibleFill" class="surface" data-hit-shape="true"/>
  </g>
  <g id="cut-flank" class="cut-hit flank" data-cut="flank" data-animal="Beef" aria-label="Flank" role="button" tabindex="0" aria-pressed="false">
    <title>Flank</title>
    <path d="M 1140 420 L 952 450 L 940.13867 653.61523 C 946.92334 652.47018 952.84097 650.25049 964 645.00977 C 974.90774 639.89359 984.84238 635.70141 995.23242 631.64062 L 1135 570 L 1140 420 z " fill="#BDDFF2" stroke="white" stroke-width="3" pointer-events="visibleFill" class="surface" data-hit-shape="true"/>
  </g>
  <g id="cut-rump" class="cut-hit rump" data-cut="rump" data-animal="Beef" aria-label="Rump" role="button" tabindex="0" aria-pressed="false">
    <title>Rump</title>
    <path d="M 1291.2109 136.07812 L 1130 153 L 1140 420 C 1143.2077 413.98552 1146.5102 408.21321 1149.8867 402.63281 C 1150.1831 402.14301 1150.4816 401.66029 1150.7793 401.17383 C 1153.985 395.93488 1157.2665 390.88819 1160.623 386.03711 C 1160.8901 385.65109 1161.1538 385.25661 1161.4219 384.87305 C 1164.9664 379.80115 1168.5893 374.93348 1172.3008 370.29102 C 1172.4631 370.08799 1172.6303 369.89557 1172.793 369.69336 C 1176.4006 365.20792 1180.0907 360.93482 1183.8555 356.85352 C 1184.2154 356.46337 1184.5762 356.07591 1184.9375 355.68945 C 1188.6977 351.66778 1192.5316 347.83656 1196.4473 344.21484 C 1196.65 344.02732 1196.8496 343.83099 1197.0527 343.64453 C 1201.1244 339.90779 1205.2824 336.39201 1209.5215 333.08594 C 1209.8071 332.86317 1210.0964 332.6505 1210.3828 332.42969 C 1214.4299 329.3094 1218.555 326.38999 1222.7539 323.66016 C 1223.1588 323.39693 1223.5625 323.13069 1223.9688 322.87109 C 1228.3527 320.07008 1232.8111 317.46039 1237.3594 315.08203 C 1237.4282 315.04606 1237.4956 315.00658 1237.5645 314.9707 C 1242.1699 312.57026 1246.8669 310.40703 1251.6406 308.43945 C 1252.0421 308.27398 1252.447 308.11749 1252.8496 307.95508 C 1257.3775 306.12878 1261.9798 304.49385 1266.6582 303.05469 C 1267.0551 302.9326 1267.4497 302.80485 1267.8477 302.68555 C 1272.7963 301.20204 1277.8233 299.91795 1282.9395 298.86523 C 1283.0953 298.83316 1283.2541 298.80901 1283.4102 298.77734 C 1288.4181 297.76075 1293.5115 296.96403 1298.6797 296.35938 C 1299.1734 296.30162 1299.6689 296.24931 1300.1641 296.19531 C 1305.2393 295.64182 1310.3884 295.27772 1315.6172 295.11914 C 1315.9339 295.10953 1316.2471 295.09019 1316.5645 295.08203 C 1319.3017 295.01166 1322.0548 294.98206 1324.834 295.01953 C 1327.1453 295.05069 1329.4956 295.18331 1331.8359 295.28906 C 1332.7002 295.32811 1333.5536 295.33945 1334.4219 295.38867 C 1339.5564 295.67979 1344.7701 296.17149 1350.043 296.81836 C 1351.1902 296.95911 1352.3462 297.12171 1353.5 297.2793 C 1358.9362 298.02176 1364.4184 298.88368 1370 300 L 1355 250 L 1314.3867 142.92969 C 1312.738 142.34748 1310.8842 141.93782 1309.7598 141.36914 C 1304.9055 138.91665 1298.3299 137.26414 1291.2109 136.07812 z " fill="#BBE1DF" stroke="white" stroke-width="3" pointer-events="visibleFill" class="surface" data-hit-shape="true"/>
  </g>
  <g id="cut-round" class="cut-hit round" data-cut="round" data-animal="Beef" aria-label="Round" role="button" tabindex="0" aria-pressed="false">
    <title>Round</title>
    <path d="M 1324.834 295.01953 C 1246.6115 293.96484 1185 335.62516 1140 420 L 1135 570 L 1240 678 L 1264.9355 707.74414 C 1267.0731 701.9405 1268.2894 697.48506 1268.6699 693.84961 C 1269.0099 690.62961 1269.6405 688 1270.0605 688 C 1272.0505 688 1279.5396 698.60049 1285.5996 709.98047 C 1294.3996 726.49043 1298.9799 733.48049 1308.9199 745.48047 C 1313.4599 750.97045 1318.8902 758.39047 1320.9902 761.98047 C 1323.2878 765.91951 1325.4864 770.56969 1327.6348 775.54492 L 1398.2344 753.38086 C 1395.1509 728.92816 1393.4732 707.26809 1393.5078 690.87695 L 1389.3145 653.97266 L 1373.5586 630.33789 C 1369.4147 624.94231 1365.7844 619.5483 1362.7598 614.13867 L 1350 595 L 1352.1895 586.5332 C 1349.614 574.51784 1349.3647 562.11893 1351.5996 548.92969 C 1352.4696 543.73969 1356.0906 530.72998 1359.6406 520 C 1369.4258 490.4209 1374.8445 469.92055 1378.3438 449.36914 L 1370 300 C 1354.375 296.875 1339.3196 295.21484 1324.834 295.01953 z M 1260 474 A 77 43 0 0 1 1337 517 A 77 43 0 0 1 1183 517 A 77 43 0 0 1 1260 474 z M 1391.4102 657.11523 C 1391.7302 658.08854 1392.0078 659.0997 1392.2539 660.13672 C 1392.0946 659.43715 1392.0962 658.5241 1391.9023 657.85352 L 1391.4102 657.11523 z M 1393.2129 666.375 C 1393.3787 667.97935 1393.5007 669.68714 1393.5664 671.5332 C 1393.5147 669.73564 1393.3577 667.94141 1393.2129 666.375 z " fill="#DBCBE8" stroke="white" stroke-width="3" pointer-events="visibleFill" class="surface" data-hit-shape="true"/>
  </g>
  <g id="cut-hind-shank" class="cut-hit shin-shank" data-cut="shin-shank" data-animal="Beef" aria-label="Shin / Shank" role="button" tabindex="0" aria-pressed="false">
    <title>Shin / Shank</title>
    <path d="M 1398.2344 753.38086 L 1327.6348 775.54492 C 1332.3312 786.42102 1336.6772 799.53463 1340.5195 815 C 1342.17 821.6313 1342.8371 828.07923 1343.4141 838.24023 L 1347 849 L 1344.1543 854.63281 C 1344.9734 880.27751 1343.5585 885.06055 1331.9805 898.5 C 1329.1405 901.8 1325.5898 906.98 1324.0898 910 C 1322.5898 913.02 1319.7796 917.98 1317.8496 921 C 1313.4566 927.89725 1308.8886 936.81661 1305.9824 943.25391 L 1405.375 932.63086 C 1406.4371 930.09802 1407 927.90733 1407 924.99023 C 1407 921.92025 1406.0699 916.77975 1404.9199 913.50977 C 1402.7599 907.34977 1402.8695 901.56078 1405.2695 896.30078 C 1406.2895 894.08078 1406.7807 893.92 1410.9707 894.5 C 1419.2407 895.63 1423.3509 889.83998 1423.3809 877 C 1423.4009 871.82002 1422.7602 869.07998 1420.2402 863.5 C 1416.4202 855.05002 1414.9998 850.00074 1411.0098 830.55078 C 1405.5509 804.0037 1401.2791 777.5262 1398.2344 753.38086 z " fill="#D0DEC8" stroke="white" stroke-width="3" pointer-events="visibleFill" class="surface" data-hit-shape="true"/>
    <rect x="1450" y="789" width="192" height="68" rx="14" fill="white" stroke="#082A54" stroke-width="2" pointer-events="visibleFill" class="surface" data-hit-shape="true"/>
    <text x="1546.0" y="832" font-family="Arial, Helvetica, sans-serif" font-size="23" font-weight="700" text-anchor="middle" fill="#082A54" pointer-events="none">Shin / Shank</text>
  </g>
  <g id="cut-cheek" class="cut-hit cheek" data-cut="cheek" data-animal="Beef" aria-label="Cheek" role="button" tabindex="0" aria-pressed="false">
    <title>Cheek</title>
    <path d="M 230 248 A 65 31 0 0 0 165 279 A 65 31 0 0 0 295 279 A 65 31 0 0 0 230 248 z " fill="#FED2BF" stroke="white" stroke-width="3" pointer-events="visibleFill" class="surface" data-hit-shape="true"/>
  </g>
  <g id="cut-rib-eye" class="cut-hit rib-eye" data-cut="rib-eye" data-animal="Beef" aria-label="Rib Eye" role="button" tabindex="0" aria-pressed="false">
    <title>Rib Eye</title>
    <path d="M 819 223 A 73 31 0 0 0 746 254 A 73 31 0 0 0 892 254 A 73 31 0 0 0 819 223 z " fill="#FCBFC4" stroke="white" stroke-width="3" pointer-events="visibleFill" class="surface" data-hit-shape="true"/>
  </g>
  <g id="cut-skirt" class="cut-hit skirt" data-cut="skirt" data-animal="Beef" aria-label="Skirt" role="button" tabindex="0" aria-pressed="false">
    <title>Skirt</title>
    <path d="M 802 563 A 69 27 0 0 0 733 590 A 69 27 0 0 0 871 590 A 69 27 0 0 0 802 563 z " fill="#FED2BF" stroke="white" stroke-width="3" pointer-events="visibleFill" class="surface" data-hit-shape="true"/>
  </g>
  <g id="cut-silverside" class="cut-hit silverside-outside" data-cut="silverside-outside" data-animal="Beef" aria-label="Silverside / Outside" role="button" tabindex="0" aria-pressed="false">
    <title>Silverside / Outside</title>
    <path d="M 1260 474 A 77 43 0 0 0 1183 517 A 77 43 0 0 0 1337 517 A 77 43 0 0 0 1260 474 z " fill="#CEC0E0" stroke="white" stroke-width="3" pointer-events="visibleFill" class="surface" data-hit-shape="true"/>
  </g>
  <g id="cut-ox-tail-tail" class="cut-hit ox-tail" data-cut="ox-tail" data-animal="Beef" aria-label="Ox Tail" role="button" tabindex="0" aria-pressed="false">
    <title>Ox Tail</title>
    <path d="M 1388 415 L 1387.9961 415.20898 C 1397.1057 497.27574 1398.1757 524.22205 1393.4609 555.92969 C 1391.2909 570.55967 1390.8791 575.45977 1391.7891 575.75977 C 1392.6591 576.04977 1393 579.97087 1393 589.63086 C 1393 602.52085 1394.6092 614.45985 1397.1992 620.83984 L 1398.2793 623.5 L 1398.9492 621 C 1399.4892 618.98 1399.8606 619.76001 1400.8906 625 C 1403.8006 639.85999 1412.1 659.18009 1421 671.83008 C 1423.84 675.87007 1426.3391 678.99906 1426.5391 678.78906 C 1426.7491 678.57906 1425.7997 674.88031 1424.4297 670.57031 C 1421.8697 662.51032 1421.7791 659.16063 1424.2891 665.14062 C 1425.0591 666.99062 1427.3394 671.07071 1429.3594 674.2207 C 1436.6494 685.60069 1445.9395 709.74923 1446.2695 718.19922 C 1446.3595 720.28922 1446.5798 722 1446.7598 722 C 1447.8698 722 1450.9602 712.85 1450.9902 709.5 C 1451.0102 707.3 1451.4206 704.89062 1451.8906 704.14062 C 1452.8506 702.63063 1455.6199 716.12087 1456.6699 727.38086 C 1457.2699 733.83085 1457.3499 733.98984 1459.1699 732.33984 C 1464.8799 727.17985 1471.9894 706.54951 1473.8594 689.76953 C 1474.7094 682.09954 1475.3801 682.28001 1476.5801 690.5 L 1477.3008 695.5 L 1478.6699 691 C 1483.5899 674.88002 1485.5691 649.12967 1483.0391 634.17969 C 1482.3491 630.15969 1482.0398 626.63008 1482.3398 626.33008 C 1482.6298 626.03008 1484.0197 629.33039 1485.4297 633.65039 L 1487.9805 641.5 L 1487.5801 628.5 C 1487.2701 618.49001 1486.5703 613.33937 1484.5703 606.10938 C 1481.6103 595.45939 1476.0291 583.05937 1470.6191 575.10938 C 1466.8291 569.53938 1466.2293 566.92922 1469.7793 571.44922 C 1472.8093 575.29921 1474.1505 574.68968 1472.5605 570.17969 C 1469.3406 561.0597 1464.6007 553.27913 1453.4707 538.86914 C 1448.1407 531.96915 1440 519.00039 1440 517.40039 C 1440 516.99039 1441.01 517.55969 1442.25 518.67969 C 1446.88 522.84968 1446.6698 521.72975 1440.7598 510.75977 C 1431.0181 492.69213 1427.9432 485.57167 1423.707 457.50977 L 1388 415 z M 1389.0312 651.47852 L 1393.6953 692.52539 C 1393.6932 689.85045 1393.43 686.38134 1393.5195 684 C 1394.1402 667.55435 1393.2479 659.50979 1389.0312 651.47852 z " fill="#E9D8CA" stroke="white" stroke-width="3" pointer-events="visibleFill" class="surface" data-hit-shape="true"/>
  </g>
  <path d="M1320.75,959.92 C1319.79,959.36 1319.00,958.02 1319.00,956.95 C1319.00,955.21 1318.28,955.00 1312.20,955.00 C1304.85,955.00 1303.00,954.03 1303.00,950.20 C1303.00,947.73 1311.64,930.75 1317.85,921.00 C1319.78,917.98 1322.59,913.02 1324.09,910.00 C1325.59,906.98 1329.14,901.80 1331.98,898.50 C1344.42,884.06 1345.26,880.64 1344.05,849.42 C1343.26,829.00 1342.75,823.96 1340.52,815.00 C1334.92,792.46 1328.31,774.53 1320.99,761.98 C1318.89,758.39 1313.46,750.97 1308.92,745.48 C1298.98,733.48 1294.40,726.49 1285.60,709.98 C1279.54,698.60 1272.05,688.00 1270.06,688.00 C1269.64,688.00 1269.01,690.63 1268.67,693.85 C1267.84,701.78 1263.63,712.78 1252.55,735.96 C1239.06,764.19 1229.42,791.52 1220.62,826.50 C1215.51,846.82 1214.71,852.32 1215.46,862.07 C1216.29,872.83 1214.93,878.55 1210.24,884.03 L1206.69,888.17 1199.66,887.84 C1192.63,887.50 1192.61,887.51 1190.31,890.90 C1188.38,893.74 1188.00,895.59 1188.00,902.19 C1188.00,912.17 1186.37,915.52 1176.73,925.43 C1168.48,933.90 1167.52,934.29 1150.33,936.07 C1138.69,937.27 1103.83,936.91 1100.75,935.56 C1099.79,935.13 1099.00,933.71 1099.00,932.39 C1099.00,930.23 1098.58,930.00 1094.55,930.00 C1092.10,930.00 1088.91,929.46 1087.46,928.80 C1082.70,926.63 1084.87,921.98 1099.90,902.16 C1104.63,895.92 1109.72,889.13 1111.21,887.07 C1112.69,885.01 1118.74,878.87 1124.63,873.41 C1136.89,862.08 1141.88,855.05 1145.00,844.74 C1146.21,840.76 1150.25,830.75 1153.97,822.50 C1164.03,800.24 1168.60,781.64 1171.05,752.88 C1172.21,739.31 1172.05,735.32 1169.45,713.00 C1166.21,685.18 1164.95,681.63 1152.09,664.08 C1140.88,648.78 1133.88,633.52 1123.02,600.75 C1119.61,590.44 1116.69,582.00 1116.55,582.00 C1116.41,582.00 1107.12,586.46 1095.90,591.90 C1072.49,603.27 1051.41,611.80 1021.50,622.01 C998.67,629.81 983.38,635.92 964.00,645.01 C947.86,652.59 942.76,654.04 930.00,654.70 C917.22,655.35 902.08,653.79 850.00,646.44 C805.26,640.12 794.74,638.33 747.50,628.97 C705.92,620.74 691.09,618.31 677.00,617.43 C661.44,616.46 641.53,619.30 632.20,623.82 L628.74,625.50 625.49,641.53 C623.70,650.34 619.30,668.79 615.70,682.53 C609.82,705.03 609.12,708.74 608.65,720.00 C608.08,733.72 606.17,742.04 600.95,753.53 C596.51,763.31 596.09,765.05 595.01,778.00 C593.04,801.69 598.98,850.13 605.74,865.50 C608.87,872.62 609.29,882.28 606.72,888.24 C604.54,893.31 599.49,895.79 594.49,894.26 C591.30,893.28 590.80,893.39 589.58,895.33 C587.03,899.41 586.86,904.32 589.04,911.08 C591.93,920.03 591.12,924.56 584.93,934.05 C578.85,943.39 574.68,947.49 569.43,949.35 C561.58,952.12 546.81,953.48 525.00,953.43 C502.38,953.39 499.00,952.81 499.00,948.96 C499.00,947.28 498.30,947.00 494.07,947.00 C486.91,947.00 484.00,945.65 484.00,942.33 C484.00,939.32 488.89,930.59 499.04,915.50 C502.74,910.00 506.51,904.03 507.41,902.24 C508.32,900.45 512.44,895.28 516.57,890.74 C526.16,880.21 529.03,874.44 530.23,863.18 C530.74,858.41 532.25,848.52 533.58,841.20 C537.61,819.06 536.48,794.05 530.63,775.60 C528.55,769.06 518.57,751.19 516.92,751.05 C516.60,751.02 514.73,754.71 512.76,759.25 C509.12,767.66 507.10,776.68 504.86,794.50 C503.42,806.00 503.10,846.89 504.37,858.00 C505.43,867.20 504.16,872.61 499.78,877.60 C496.93,880.84 496.27,881.13 492.57,880.67 C490.33,880.40 487.30,879.87 485.83,879.49 C481.73,878.43 479.71,883.17 479.59,894.07 C479.49,904.02 478.36,906.28 468.35,916.65 C460.95,924.32 456.96,925.65 437.25,927.05 C421.44,928.17 394.72,926.84 392.27,924.81 C391.50,924.17 391.08,922.82 391.34,921.82 C391.74,920.27 391.18,920.00 387.47,920.00 C381.26,920.00 377.99,918.54 378.03,915.77 C378.07,913.05 386.07,901.15 395.01,890.51 C398.58,886.27 403.30,880.39 405.50,877.43 C407.70,874.48 412.88,869.43 417.00,866.21 C429.39,856.52 433.20,851.22 436.55,839.00 C437.53,835.42 440.30,827.44 442.69,821.26 C448.44,806.45 450.26,794.44 449.79,774.50 C449.45,759.89 449.35,759.32 446.10,752.50 C439.15,737.96 437.87,731.68 437.00,708.00 C436.25,687.58 436.01,685.70 432.21,670.50 C430.01,661.70 427.90,652.62 427.53,650.31 C426.87,646.26 426.56,645.97 417.67,641.04 C398.22,630.26 383.52,616.23 369.65,595.22 C365.03,588.23 357.61,578.54 353.17,573.70 C340.88,560.32 333.31,548.02 327.65,532.25 C323.47,520.62 321.17,510.38 317.53,487.23 C310.97,445.43 304.35,421.18 292.93,397.12 C290.22,391.41 288.00,386.18 288.00,385.49 C288.00,384.81 287.26,383.63 286.36,382.89 C285.46,382.14 280.71,375.45 275.81,368.01 C265.58,352.52 261.19,348.01 254.07,345.71 C249.73,344.31 247.86,344.24 241.08,345.23 C226.19,347.40 212.32,344.13 195.18,334.42 C186.95,329.76 183.37,328.82 167.00,327.07 C161.78,326.50 154.89,325.36 151.70,324.52 C148.51,323.69 142.78,323.00 138.97,323.00 C133.00,323.00 131.13,323.48 125.60,326.41 C113.05,333.07 99.98,333.51 87.87,327.69 C84.92,326.27 81.15,324.83 79.50,324.49 C77.69,324.11 74.51,321.77 71.50,318.60 C67.70,314.61 65.57,313.19 62.65,312.72 C57.40,311.87 53.01,308.25 49.47,301.87 C46.79,297.02 46.49,295.57 46.40,286.96 C46.35,281.72 45.73,275.06 45.04,272.17 C44.06,268.08 44.04,265.89 44.96,262.21 C47.41,252.36 52.65,246.39 65.37,238.94 C73.12,234.40 82.02,224.64 99.94,201.00 C108.07,190.28 116.36,179.54 118.36,177.16 C121.71,173.16 122.00,172.30 122.00,166.45 C122.00,162.96 122.49,157.82 123.09,155.03 L124.17,149.97 119.30,144.63 C113.58,138.38 104.68,123.35 103.04,117.19 C100.72,108.48 106.42,102.90 123.00,97.63 C139.56,92.37 147.08,93.44 166.10,103.74 C166.43,103.92 168.31,102.10 170.28,99.70 L173.86,95.34 167.68,88.87 C158.69,79.46 153.03,66.91 153.01,56.32 C153.00,50.88 154.67,48.00 157.83,48.00 C158.76,48.00 162.66,51.23 166.51,55.17 C172.21,61.02 175.22,63.16 182.84,66.78 C193.19,71.69 196.59,72.13 204.98,69.63 C209.45,68.29 211.53,68.19 216.30,69.05 C220.63,69.84 223.55,69.80 227.60,68.89 C230.60,68.22 232.91,67.41 232.73,67.08 C225.81,54.78 224.08,43.06 228.96,41.51 C231.45,40.72 232.85,41.50 243.45,49.49 C252.76,56.52 257.55,59.20 268.50,63.52 C276.80,66.81 281.98,70.30 284.94,74.61 C287.79,78.78 289.28,84.43 288.49,88.07 C287.89,90.80 288.15,91.14 292.32,92.92 L296.80,94.84 301.41,90.43 C307.62,84.48 316.07,80.41 326.40,78.38 C334.72,76.74 335.36,76.76 347.76,78.85 C354.79,80.03 362.04,81.00 363.87,81.00 C368.28,81.00 373.41,83.52 374.98,86.46 C376.89,90.04 375.80,100.45 372.71,107.96 C370.92,112.34 370.41,114.64 371.15,115.10 C371.75,115.47 376.27,116.29 381.20,116.92 C386.12,117.55 392.48,118.95 395.33,120.03 C398.37,121.19 402.97,122.00 406.50,122.01 C409.80,122.01 419.48,123.61 428.00,125.55 C453.84,131.45 462.20,132.91 484.80,135.43 C510.81,138.34 521.51,140.44 542.00,146.63 L557.50,151.31 605.50,152.05 C657.07,152.85 656.75,152.82 700.00,159.92 C746.16,167.49 779.51,169.50 845.00,168.68 C900.32,167.98 945.96,165.85 1011.00,160.94 C1060.95,157.17 1079.02,155.08 1148.00,145.08 C1193.86,138.43 1200.16,137.79 1223.00,137.48 C1234.38,137.33 1247.70,136.50 1255.00,135.50 C1275.21,132.72 1297.33,135.09 1309.76,141.37 C1312.37,142.69 1317.20,144.32 1320.50,144.99 C1328.80,146.69 1337.19,150.23 1343.01,154.51 C1347.94,158.13 1360.10,172.43 1366.58,182.25 C1376.40,197.11 1385.23,217.88 1390.54,238.60 C1396.22,260.74 1407.91,335.48 1417.05,408.00 C1426.61,483.90 1426.86,484.98 1440.76,510.76 C1446.67,521.73 1446.88,522.85 1442.25,518.68 C1441.01,517.56 1440.00,516.99 1440.00,517.40 C1440.00,519.00 1448.14,531.97 1453.47,538.87 C1464.60,553.28 1469.34,561.06 1472.56,570.18 C1474.27,575.00 1473.00,575.03 1468.46,570.25 C1465.12,566.75 1465.20,566.97 1469.60,573.50 C1481.18,590.70 1486.95,608.34 1487.58,628.50 L1487.98,641.50 1485.43,633.65 C1484.02,629.33 1482.63,626.03 1482.34,626.33 C1482.04,626.63 1482.35,630.16 1483.04,634.18 C1485.57,649.13 1483.59,674.88 1478.67,691.00 L1477.30,695.50 1476.58,690.50 C1475.38,682.28 1474.71,682.10 1473.86,689.77 C1471.99,706.55 1464.88,727.18 1459.17,732.34 C1457.35,733.99 1457.27,733.83 1456.67,727.38 C1455.62,716.12 1452.85,702.63 1451.89,704.14 C1451.42,704.89 1451.01,707.30 1450.99,709.50 C1450.96,712.85 1447.87,722.00 1446.76,722.00 C1446.58,722.00 1446.36,720.29 1446.27,718.20 C1445.94,709.75 1436.65,685.60 1429.36,674.22 C1427.34,671.07 1425.06,666.99 1424.29,665.14 C1421.78,659.16 1421.87,662.51 1424.43,670.57 C1425.80,674.88 1426.75,678.58 1426.54,678.79 C1426.34,679.00 1423.84,675.87 1421.00,671.83 C1412.10,659.18 1403.80,639.86 1400.89,625.00 C1399.86,619.76 1399.49,618.98 1398.95,621.00 L1398.28,623.50 1397.20,620.84 C1394.61,614.46 1393.00,602.52 1393.00,589.63 C1393.00,579.97 1392.66,576.05 1391.79,575.76 C1390.88,575.46 1391.29,570.56 1393.46,555.93 C1398.30,523.38 1397.20,496.85 1387.40,409.50 C1385.98,396.85 1384.72,386.40 1384.61,386.28 C1384.49,386.16 1383.86,395.16 1383.21,406.28 C1380.81,447.05 1375.84,471.03 1359.64,520.00 C1356.09,530.73 1352.47,543.74 1351.60,548.93 C1346.12,581.27 1354.76,608.98 1379.19,637.46 C1392.76,653.27 1394.47,658.83 1393.52,684.00 C1392.34,715.40 1399.25,773.36 1411.01,830.55 C1415.00,850.00 1416.42,855.05 1420.24,863.50 C1422.76,869.08 1423.40,871.82 1423.38,877.00 C1423.35,889.84 1419.24,895.63 1410.97,894.50 C1406.78,893.92 1406.29,894.08 1405.27,896.30 C1402.87,901.56 1402.76,907.35 1404.92,913.51 C1406.07,916.78 1407.00,921.92 1407.00,924.99 C1407.00,929.72 1406.35,931.70 1402.63,938.21 C1393.35,954.49 1389.60,956.95 1370.00,959.56 C1357.79,961.19 1323.36,961.44 1320.75,959.92 Z M1367.00,951.06 C1374.64,949.74 1376.34,949.21 1373.25,949.12 C1368.37,948.98 1367.60,947.47 1371.93,946.52 C1375.37,945.76 1378.27,943.00 1375.62,943.00 C1374.73,943.00 1374.00,942.54 1374.00,941.97 C1374.00,941.03 1374.63,940.69 1378.92,939.37 C1379.97,939.05 1380.05,938.65 1379.20,937.80 C1378.36,936.96 1378.51,936.34 1379.78,935.37 C1381.40,934.14 1381.40,934.06 1379.75,934.03 C1375.53,933.96 1378.97,931.00 1383.28,931.00 C1387.75,931.00 1383.13,929.14 1372.50,926.66 C1358.90,923.49 1350.27,922.52 1347.00,923.81 C1345.32,924.47 1341.64,929.37 1335.75,938.84 C1330.94,946.57 1327.00,953.21 1327.00,953.60 C1327.00,954.81 1355.97,952.97 1367.00,951.06 Z M1323.25,944.25 C1324.45,942.19 1328.22,936.37 1331.62,931.33 L1337.80,922.16 1335.65,920.23 C1331.80,916.77 1331.28,916.87 1327.79,921.75 C1324.57,926.27 1315.57,940.95 1313.09,945.75 C1311.97,947.92 1312.08,948.00 1316.50,948.00 C1320.72,948.00 1321.23,947.72 1323.25,944.25 Z M540.60,944.99 C547.70,944.43 554.85,943.65 556.50,943.26 C559.16,942.62 558.88,942.47 554.00,941.97 C548.33,941.39 548.33,941.37 555.30,938.76 C557.07,938.10 557.91,937.20 557.57,936.32 C557.25,935.49 557.94,934.56 559.27,934.03 C560.49,933.53 560.94,933.10 560.25,933.06 C557.97,932.95 558.96,931.05 561.66,930.37 C564.02,929.78 564.13,929.57 562.66,928.49 C560.28,926.75 560.60,926.00 563.75,925.97 C566.05,925.94 566.22,925.78 564.80,924.95 C561.59,923.08 540.50,917.98 533.41,917.36 L526.31,916.73 517.33,930.12 C512.39,937.48 508.02,944.06 507.62,944.75 C506.68,946.34 521.99,946.45 540.60,944.99 Z M501.06,939.00 C502.05,939.00 503.12,938.21 503.42,937.25 C503.73,936.29 507.36,931.00 511.50,925.50 L519.03,915.50 516.46,913.25 C515.04,912.01 513.54,911.00 513.10,911.00 C511.93,911.00 493.00,937.83 493.00,939.50 C493.00,939.91 494.41,939.97 496.12,939.62 C497.84,939.28 500.06,939.00 501.06,939.00 Z M1138.00,928.88 C1153.31,927.77 1161.19,926.14 1152.00,925.99 L1147.50,925.91 1151.50,923.83 C1156.60,921.18 1156.71,921.06 1155.09,920.05 C1154.11,919.45 1154.57,919.03 1156.70,918.57 C1159.29,918.00 1161.08,915.00 1158.83,915.00 C1158.38,915.00 1158.00,914.55 1158.00,914.00 C1158.00,913.45 1159.10,913.00 1160.44,913.00 C1165.71,913.00 1163.54,911.09 1154.23,907.52 C1144.65,903.85 1131.97,900.63 1129.37,901.21 C1127.75,901.57 1108.00,927.01 1108.00,928.75 C1108.00,930.36 1117.25,930.40 1138.00,928.88 Z M1398.00,921.63 C1398.00,919.77 1397.33,916.34 1396.50,914.00 C1393.60,905.78 1394.91,894.83 1399.38,890.08 C1400.71,888.66 1402.09,885.66 1402.46,883.42 C1403.32,878.12 1406.29,873.31 1410.01,871.19 C1411.65,870.26 1412.99,869.05 1412.98,868.50 C1412.98,867.95 1411.85,865.08 1410.47,862.11 C1407.31,855.32 1404.24,843.11 1399.00,816.50 C1391.53,778.57 1388.83,759.01 1384.93,714.78 C1383.14,694.35 1383.01,689.75 1384.04,681.57 C1386.11,665.18 1383.24,656.39 1371.49,643.00 C1359.30,629.12 1350.19,613.62 1345.45,598.69 L1343.16,591.50 1342.97,599.00 L1342.78,606.50 1341.23,601.00 C1340.07,596.87 1339.68,590.38 1339.66,575.00 C1339.64,556.48 1339.90,553.20 1342.40,541.00 C1343.92,533.58 1346.42,524.58 1347.97,521.00 C1352.11,511.42 1361.50,482.16 1364.91,468.19 C1371.44,441.48 1373.94,421.19 1374.69,389.00 C1376.24,322.74 1364.18,264.86 1342.35,233.75 C1330.83,217.34 1314.15,203.42 1294.55,193.87 C1285.25,189.34 1286.14,189.01 1297.93,192.60 C1310.45,196.42 1324.49,204.05 1331.82,211.00 C1333.09,212.21 1334.29,213.04 1334.47,212.85 C1335.19,212.12 1324.97,194.81 1319.69,187.81 C1316.65,183.79 1311.09,177.40 1307.34,173.61 C1299.94,166.15 1300.89,166.15 1311.02,173.58 C1324.89,183.75 1334.81,196.51 1346.18,218.78 C1349.41,225.09 1352.96,231.54 1354.08,233.11 C1365.05,248.52 1379.73,299.28 1388.00,350.39 C1391.65,372.99 1396.01,407.67 1400.00,446.00 C1403.28,477.39 1404.13,483.71 1406.50,494.00 C1408.12,501.03 1411.06,519.20 1410.91,521.24 C1410.79,522.84 1407.45,512.25 1405.78,505.00 C1404.59,499.85 1404.47,500.96 1403.89,522.50 C1403.45,538.55 1402.62,549.43 1401.14,558.50 C1399.98,565.65 1399.02,572.31 1399.01,573.31 C1398.99,576.43 1400.80,574.17 1401.46,570.24 C1402.53,563.96 1406.86,550.33 1406.93,553.04 C1406.97,554.44 1406.28,560.96 1405.41,567.54 C1404.25,576.17 1403.94,584.23 1404.29,596.50 C1404.71,611.42 1405.15,615.00 1407.95,625.80 C1409.70,632.57 1411.89,639.90 1412.82,642.08 C1414.48,646.00 1414.50,645.86 1414.15,630.78 C1413.96,622.33 1414.26,613.94 1414.81,612.00 L1415.82,608.50 1415.91,613.50 C1416.11,624.25 1422.89,652.28 1426.05,655.45 C1426.65,656.05 1427.00,653.58 1427.00,648.76 C1427.00,644.56 1427.45,640.84 1428.00,640.50 C1428.59,640.13 1429.00,641.29 1429.00,643.33 C1429.00,647.56 1433.17,663.91 1435.81,670.02 C1436.87,672.48 1439.84,678.77 1442.40,684.00 L1447.07,693.50 1446.48,688.50 C1446.16,685.75 1445.20,679.39 1444.35,674.37 C1441.25,656.04 1443.31,659.88 1455.67,695.50 C1457.57,701.00 1459.49,707.30 1459.92,709.50 C1460.55,712.73 1460.84,713.12 1461.43,711.50 C1461.82,710.40 1462.81,707.99 1463.61,706.13 C1467.68,696.78 1469.86,674.03 1468.08,659.37 C1467.09,651.20 1463.70,634.88 1461.42,627.27 C1461.13,626.30 1462.21,627.98 1463.83,631.00 C1467.74,638.31 1472.51,652.00 1474.50,661.64 C1475.38,665.93 1476.24,669.58 1476.41,669.74 C1477.44,670.77 1477.86,647.64 1476.95,639.40 C1475.88,629.59 1472.67,613.02 1470.89,608.07 L1469.97,605.50 1472.08,608.00 C1473.24,609.38 1473.96,609.83 1473.68,609.00 C1472.16,604.47 1465.69,589.32 1462.99,583.98 C1461.27,580.58 1460.08,577.59 1460.33,577.34 C1460.58,577.09 1463.39,580.05 1466.58,583.92 C1469.76,587.80 1472.54,590.79 1472.75,590.58 C1473.70,589.64 1468.20,581.09 1456.28,564.93 C1449.21,555.34 1442.58,546.17 1441.55,544.54 L1439.68,541.57 1443.82,544.86 C1446.11,546.67 1448.20,548.52 1448.49,548.98 C1448.77,549.44 1451.36,551.77 1454.23,554.16 L1459.45,558.50 1457.03,555.00 C1455.70,553.08 1452.10,548.12 1449.03,544.00 C1439.30,530.91 1433.49,520.71 1430.96,512.27 C1430.26,509.94 1428.86,507.28 1427.85,506.36 C1426.11,504.79 1426.00,504.81 1426.01,506.60 C1426.02,507.64 1426.68,510.95 1427.48,513.95 C1430.65,525.88 1426.17,518.14 1420.54,501.98 C1416.99,491.79 1414.84,484.00 1415.58,484.00 C1415.78,484.00 1416.89,486.21 1418.05,488.90 C1419.21,491.60 1421.25,494.83 1422.58,496.08 C1425.43,498.75 1425.63,498.10 1423.32,493.70 C1420.08,487.53 1416.97,472.23 1412.99,443.00 C1398.91,339.53 1395.91,318.92 1388.95,277.50 C1379.86,223.44 1368.52,195.03 1347.05,172.61 C1339.76,164.99 1339.61,164.74 1342.75,165.33 C1344.54,165.67 1346.00,165.75 1346.00,165.50 C1346.00,164.77 1322.85,154.00 1321.27,154.00 C1321.01,154.00 1322.19,155.59 1323.90,157.53 C1327.91,162.10 1327.85,162.95 1323.75,159.62 C1318.16,155.08 1310.62,151.02 1307.75,151.01 C1306.11,151.00 1305.10,150.50 1305.25,149.77 C1305.95,146.32 1280.86,142.28 1266.26,143.49 L1257.65,144.21 1264.72,146.96 C1270.84,149.34 1279.00,153.61 1279.00,154.43 C1279.00,154.58 1275.41,153.66 1271.01,152.39 C1255.57,147.91 1242.81,146.72 1216.50,147.27 C1190.49,147.82 1176.82,149.29 1135.00,156.00 C1081.83,164.54 1042.97,168.44 961.00,173.47 C900.45,177.18 859.70,178.29 805.14,177.71 C747.65,177.10 738.05,176.30 688.00,167.98 C651.25,161.88 646.28,161.49 607.00,161.62 C576.32,161.72 569.50,162.03 556.78,163.89 C548.68,165.07 541.26,166.29 540.28,166.59 C536.48,167.76 543.77,163.98 548.25,162.46 C552.91,160.87 554.59,159.00 551.36,159.00 C550.46,159.00 542.47,157.00 533.61,154.55 C513.23,148.92 504.95,147.39 482.00,144.97 C471.82,143.90 461.48,142.76 459.00,142.44 C455.69,142.01 454.90,142.14 456.00,142.91 C458.39,144.60 456.67,144.20 448.32,141.12 C444.02,139.54 437.12,137.30 433.00,136.15 C425.20,133.98 408.77,130.89 408.18,131.49 C407.99,131.67 409.56,133.43 411.67,135.39 C416.54,139.91 414.23,140.06 408.13,135.63 C405.59,133.77 401.63,131.31 399.34,130.15 C394.71,127.81 381.38,125.26 380.23,126.49 C379.83,126.92 380.13,127.50 380.89,127.77 C382.82,128.45 390.16,135.18 389.59,135.74 C389.34,135.99 387.64,135.08 385.82,133.72 C380.84,129.99 366.95,122.91 365.89,123.57 C365.38,123.88 363.79,126.47 362.35,129.32 C358.67,136.61 350.99,145.99 344.74,150.82 C333.57,159.44 322.88,162.34 310.75,160.05 L304.32,158.83 301.11,162.04 C298.17,164.99 297.50,165.21 292.88,164.76 C285.56,164.06 280.29,160.00 276.28,151.98 C272.62,144.66 271.43,138.72 272.54,133.26 L273.30,129.50 274.08,132.50 C274.51,134.15 275.37,138.66 275.98,142.52 C277.98,155.07 283.93,162.00 292.71,162.00 C297.35,162.00 301.00,160.64 301.00,158.91 C301.00,158.34 300.56,158.16 300.01,158.49 C299.45,158.84 299.27,158.45 299.61,157.58 C300.05,156.42 299.21,155.90 296.10,155.40 C291.44,154.65 290.84,153.39 294.50,152.00 C296.24,151.34 299.36,151.53 304.73,152.64 C316.06,154.99 323.55,154.11 332.89,149.35 C337.05,147.23 340.92,144.59 341.48,143.48 C342.04,142.37 344.57,139.56 347.10,137.24 C349.64,134.92 352.84,130.87 354.22,128.26 C355.60,125.64 357.46,122.15 358.36,120.50 C364.10,109.94 368.27,99.14 368.38,94.55 C368.49,90.07 368.26,89.52 366.00,88.87 C361.49,87.56 340.65,85.51 333.32,85.65 C318.91,85.94 307.39,92.16 297.87,104.81 C295.51,107.94 291.20,113.05 288.29,116.18 C285.38,119.30 283.00,122.41 283.00,123.09 C283.00,123.77 282.74,124.07 282.42,123.75 C282.10,123.43 282.75,121.10 283.86,118.58 C284.98,116.06 285.58,114.01 285.19,114.02 C283.83,114.07 279.89,117.62 277.97,120.53 C276.12,123.34 276.01,123.37 276.01,121.20 C275.99,116.98 278.95,112.91 283.47,110.91 C286.20,109.70 288.57,107.70 289.87,105.50 L291.93,102.00 288.34,100.50 C286.37,99.67 284.64,99.00 284.50,99.00 C284.36,99.00 283.97,100.42 283.62,102.17 C282.72,106.66 278.58,111.66 273.69,114.16 C262.00,120.12 245.37,113.74 242.00,102.00 C240.84,97.94 241.35,98.22 244.32,103.25 C245.69,105.59 248.24,108.85 249.98,110.50 C252.81,113.19 253.78,113.49 259.32,113.45 C265.47,113.39 271.94,111.02 276.25,107.23 C279.06,104.76 278.27,104.01 274.75,105.83 C269.89,108.33 261.46,107.96 256.25,105.03 C251.60,102.41 248.02,96.51 247.98,91.43 L247.96,88.50 246.00,91.00 C244.92,92.38 244.03,94.54 244.02,95.81 C244.01,97.09 243.55,97.84 243.00,97.50 C241.24,96.41 241.88,89.42 243.98,86.75 L245.96,84.24 241.89,79.62 C238.43,75.68 237.28,75.00 234.10,75.00 C229.46,75.00 221.01,77.46 214.75,80.63 C209.57,83.25 208.15,82.21 213.00,79.34 C214.65,78.37 216.00,77.22 216.00,76.78 C216.00,75.35 205.57,75.97 200.76,77.69 C193.74,80.20 187.08,85.74 183.87,91.72 C178.04,102.55 174.52,106.41 161.45,116.29 C146.59,127.52 139.86,133.78 136.43,139.58 C132.85,145.62 130.11,154.35 129.44,161.86 L128.85,168.50 132.84,164.00 C135.04,161.53 137.08,159.75 137.38,160.05 C138.20,160.86 129.04,174.65 115.50,193.01 C91.32,225.78 81.33,237.31 71.12,244.20 C68.58,245.92 66.32,247.46 66.11,247.64 C65.20,248.36 70.69,251.94 72.76,251.97 C74.00,251.99 79.18,251.06 84.26,249.92 C99.97,246.38 107.27,247.94 112.75,255.99 C115.87,260.57 115.57,261.83 112.29,257.93 C106.79,251.40 98.42,249.64 86.50,252.52 C77.91,254.59 70.22,254.40 65.51,252.01 L61.60,250.01 58.73,252.76 C53.28,257.97 51.75,261.49 52.41,267.27 C52.74,270.15 53.34,277.70 53.76,284.05 C54.51,295.58 55.32,298.18 59.47,302.33 C60.60,303.46 62.03,303.75 64.29,303.32 C66.05,302.99 67.64,302.60 67.80,302.47 C67.97,302.34 67.19,300.71 66.06,298.86 C64.93,297.01 64.01,294.60 64.01,293.50 C64.02,292.21 65.09,293.37 67.02,296.73 C69.16,300.47 70.80,302.14 72.76,302.58 C80.93,304.42 84.42,305.53 93.87,309.27 C102.37,312.63 103.85,313.51 102.09,314.16 C100.76,314.65 95.15,314.00 87.32,312.45 C80.38,311.06 74.28,310.07 73.76,310.25 C73.25,310.42 74.05,311.78 75.54,313.27 C77.42,315.15 78.91,315.81 80.42,315.43 C81.73,315.10 83.55,315.64 85.04,316.81 C91.60,321.92 96.19,323.42 105.50,323.46 C112.65,323.49 115.22,323.10 118.00,321.53 L121.50,319.57 115.93,318.94 C111.24,318.40 105.34,316.40 107.00,315.91 C107.28,315.83 112.54,315.22 118.71,314.56 C127.55,313.61 131.14,312.74 135.71,310.43 C140.88,307.81 141.82,306.83 144.50,301.30 C146.15,297.89 148.01,295.08 148.64,295.05 C150.30,294.98 151.04,297.57 150.35,301.01 L149.75,304.00 154.13,302.39 C156.53,301.51 162.55,300.63 167.51,300.45 C176.43,300.12 183.22,299.01 188.43,297.03 C192.34,295.54 190.71,297.60 186.12,299.94 C181.63,302.23 173.14,304.45 163.12,305.95 C155.63,307.08 146.90,310.21 145.05,312.44 C144.27,313.38 146.35,314.21 153.76,315.93 C166.33,318.84 182.02,320.26 194.00,319.58 C203.80,319.02 204.21,319.50 195.56,321.42 L190.56,322.53 202.03,328.27 C216.78,335.65 223.74,337.41 235.50,336.72 C245.69,336.13 257.07,332.93 260.23,329.77 C261.81,328.19 262.19,328.07 261.70,329.33 C260.39,332.76 265.15,330.68 271.40,325.10 C273.00,323.67 273.93,323.18 273.47,324.00 C271.05,328.32 268.01,331.57 263.64,334.54 L258.78,337.83 262.13,339.57 C266.83,342.00 276.00,349.04 276.00,350.22 C276.00,352.16 288.58,371.50 292.58,375.71 C297.40,380.78 300.16,381.15 304.34,377.25 L307.29,374.50 306.62,377.00 C306.26,378.38 305.30,383.17 304.49,387.65 L303.03,395.80 306.88,406.15 C309.00,411.84 312.45,422.01 314.53,428.75 C316.62,435.49 318.67,441.00 319.08,441.00 C319.50,441.00 320.14,439.62 320.52,437.93 C321.75,432.33 322.14,435.68 320.96,441.64 C320.02,446.38 320.07,448.65 321.23,453.50 L322.67,459.50 323.65,455.00 C324.50,451.09 324.71,452.54 325.27,466.00 C325.88,480.96 328.03,496.87 331.42,511.50 C336.50,533.41 346.22,552.26 360.03,567.00 C365.26,572.57 366.04,573.11 365.54,570.75 C365.22,569.24 365.13,568.00 365.35,568.00 C365.56,568.00 368.09,572.61 370.98,578.25 C373.87,583.89 378.54,591.87 381.37,595.98 C388.25,606.00 401.73,619.42 411.33,625.80 C419.69,631.34 422.72,632.46 419.17,628.69 C415.41,624.68 416.81,624.67 421.36,628.67 C431.57,637.64 448.69,645.27 466.95,648.99 C476.61,650.96 492.00,651.73 492.00,650.25 C492.00,649.84 490.31,644.63 488.25,638.69 L484.50,627.87 476.50,623.71 C470.90,620.79 465.88,617.02 459.75,611.13 C449.91,601.67 448.20,598.70 456.47,605.43 C462.03,609.96 478.27,620.00 480.03,620.00 C481.36,620.00 481.37,620.02 478.09,608.62 C476.50,603.06 474.43,595.12 473.49,591.00 C470.57,578.06 465.19,562.70 461.42,556.48 C459.42,553.19 457.21,548.89 456.50,546.93 C455.79,544.96 453.99,540.91 452.50,537.93 C449.40,531.72 449.48,531.79 457.93,542.29 C466.16,552.53 470.24,559.43 473.58,568.81 C477.05,578.53 478.00,579.60 478.00,573.77 C478.00,568.74 480.22,557.02 481.94,553.00 C482.75,551.09 482.87,552.64 482.43,559.50 C481.80,569.35 483.16,586.00 485.62,598.50 C488.00,610.60 498.82,642.94 503.54,652.07 C507.14,659.04 509.87,672.11 511.45,690.05 C512.35,700.20 513.76,712.00 514.58,716.28 C516.39,725.73 521.01,738.54 525.29,745.99 C528.34,751.30 528.48,751.40 528.98,748.74 C529.48,746.10 529.63,746.22 532.35,751.45 C533.92,754.45 537.43,759.00 540.17,761.56 C542.90,764.11 544.93,766.41 544.67,766.66 C544.42,766.91 542.54,766.42 540.49,765.56 C538.43,764.70 536.64,764.00 536.50,764.00 C536.36,764.00 537.27,766.81 538.51,770.25 C542.55,781.38 544.32,794.84 544.41,815.00 C544.49,830.73 544.15,835.15 542.18,844.50 C540.18,854.01 539.96,857.09 540.54,867.25 C541.03,875.60 540.90,879.00 540.11,879.00 C539.50,879.00 539.00,877.65 539.00,876.00 C539.00,874.35 538.55,873.00 538.00,873.00 C537.45,873.00 537.00,873.70 537.00,874.56 C537.00,878.43 531.22,887.71 523.85,895.66 L515.87,904.27 519.09,907.59 L522.31,910.91 527.32,906.40 C534.90,899.58 536.40,899.20 532.43,905.10 C530.54,907.91 529.00,910.49 529.00,910.85 C529.01,911.21 532.31,911.58 536.34,911.67 C543.02,911.83 550.38,913.40 571.00,919.09 C580.56,921.73 582.00,921.60 582.00,918.13 C582.00,916.54 581.33,913.34 580.50,911.00 C577.59,902.77 579.67,891.47 584.74,887.88 C585.82,887.12 586.99,884.91 587.35,882.97 C588.12,878.85 593.23,872.24 596.66,870.94 C599.01,870.05 599.02,869.98 597.42,866.27 C594.17,858.71 593.06,854.20 590.59,838.50 C586.85,814.73 585.65,798.75 586.28,781.13 C586.87,764.59 587.77,760.19 592.92,748.85 C599.18,735.03 600.43,724.35 598.64,700.00 C598.12,692.88 598.16,687.55 598.76,686.01 C599.56,683.94 599.84,684.84 600.46,691.37 C601.26,699.92 602.18,700.24 603.72,692.50 C604.27,689.75 607.00,678.73 609.78,668.00 C616.19,643.29 619.62,626.34 621.93,608.00 C623.32,596.98 623.79,594.89 623.88,599.31 C623.95,602.50 624.39,604.88 624.86,604.59 C625.89,603.95 627.70,594.86 628.50,586.34 C629.61,574.55 625.46,552.88 619.54,539.48 C618.20,536.47 617.25,534.00 617.42,534.00 C618.25,534.00 627.22,548.35 629.03,552.56 C630.16,555.20 631.84,561.34 632.76,566.21 L634.43,575.06 636.18,571.64 C640.11,563.98 643.99,552.70 645.57,544.35 C647.54,533.94 647.06,513.88 644.50,500.00 C643.50,494.55 642.79,483.41 642.52,469.00 C642.11,446.46 642.41,446.15 644.98,466.50 C645.60,471.45 647.70,483.38 649.65,493.00 C651.59,502.62 653.43,514.01 653.74,518.30 C654.04,522.60 654.61,525.75 655.01,525.30 C656.11,524.06 661.92,497.96 663.14,488.74 C663.74,484.21 664.47,480.27 664.75,480.00 C665.98,478.83 663.82,509.35 662.04,518.31 C659.77,529.71 652.90,554.59 649.41,564.00 C648.09,567.58 644.48,575.00 641.38,580.50 C637.71,587.02 635.31,592.67 634.50,596.75 C633.81,600.19 633.53,602.99 633.87,602.99 C634.22,602.98 640.58,598.22 648.00,592.41 C655.42,586.60 662.84,580.88 664.49,579.69 L667.47,577.53 665.28,580.60 C664.08,582.29 662.37,584.28 661.49,585.01 C660.61,585.74 659.45,587.15 658.92,588.15 C658.04,589.79 658.21,589.87 660.59,588.97 C665.12,587.24 676.31,586.12 680.50,586.96 C684.28,587.73 684.33,587.78 681.33,587.89 C676.67,588.05 666.69,590.79 659.62,593.83 C654.43,596.06 636.39,609.73 637.36,610.69 C637.51,610.84 640.98,610.23 645.07,609.32 C655.29,607.06 680.76,607.09 696.00,609.38 C711.69,611.73 718.01,612.94 751.29,619.94 C781.25,626.25 817.43,633.03 820.64,632.95 C821.66,632.93 817.45,631.36 811.27,629.46 C794.13,624.19 761.03,611.51 771.50,614.22 C772.60,614.51 778.67,616.11 785.00,617.78 C803.09,622.56 839.11,630.65 855.00,633.50 C862.98,634.93 869.95,636.31 870.50,636.56 C871.05,636.81 867.06,636.82 861.62,636.58 C856.19,636.34 852.14,636.51 852.62,636.95 C853.39,637.65 876.37,640.86 903.50,644.06 C908.45,644.65 917.67,645.18 924.00,645.25 C934.04,645.37 936.03,645.11 939.71,643.19 C942.03,641.99 945.63,640.98 947.71,640.95 C949.79,640.93 952.85,640.33 954.50,639.63 C957.23,638.46 956.37,638.28 944.94,637.66 C931.84,636.96 924.85,635.58 916.47,632.04 L911.50,629.94 915.50,630.61 C936.41,634.09 955.00,631.40 974.75,622.01 C979.29,619.86 983.00,618.23 983.00,618.40 C983.00,619.33 970.12,627.53 964.76,630.01 L958.50,632.91 962.50,632.92 C966.86,632.94 971.07,631.54 987.00,624.78 C992.77,622.32 1007.56,616.85 1019.85,612.61 C1054.09,600.80 1068.05,594.96 1099.09,579.48 C1110.65,573.71 1120.63,569.00 1121.27,569.00 C1123.30,569.00 1136.00,563.72 1136.00,562.88 C1136.00,562.07 1133.78,561.37 1122.00,558.48 C1111.73,555.96 1086.67,555.41 1074.08,557.43 C1068.34,558.35 1063.21,559.37 1062.67,559.70 C1062.13,560.04 1061.99,559.82 1062.36,559.23 C1063.13,557.98 1075.62,553.73 1085.00,551.52 C1094.63,549.25 1111.22,548.52 1121.06,549.91 C1147.95,553.73 1176.90,566.40 1197.29,583.29 C1199.92,585.47 1202.26,587.07 1202.48,586.86 C1202.70,586.64 1199.54,582.30 1195.47,577.23 C1191.40,572.15 1188.40,568.00 1188.81,568.00 C1190.06,568.00 1204.45,583.17 1209.20,589.50 C1213.15,594.76 1222.51,609.44 1238.23,635.00 C1253.96,660.58 1270.68,677.29 1293.25,689.96 C1296.41,691.74 1299.00,693.33 1299.00,693.50 C1299.00,694.07 1289.47,691.32 1287.20,690.11 C1284.58,688.70 1284.39,689.68 1286.66,692.92 C1287.57,694.22 1291.66,701.41 1295.76,708.89 C1303.65,723.32 1313.29,737.07 1319.82,743.23 C1326.76,749.77 1338.93,776.18 1345.47,798.91 C1350.60,816.71 1352.87,830.43 1354.11,851.00 C1355.60,875.71 1355.92,883.00 1355.36,880.00 C1354.38,874.67 1353.76,874.65 1352.38,879.89 C1350.14,888.43 1347.73,893.03 1341.83,900.00 C1334.21,909.00 1332.24,913.00 1335.45,913.00 C1336.25,913.00 1337.72,914.07 1338.70,915.38 L1340.50,917.76 1345.36,912.83 C1348.03,910.11 1350.43,908.09 1350.68,908.35 C1350.93,908.60 1350.21,910.63 1349.07,912.86 C1347.93,915.09 1347.00,917.12 1347.00,917.37 C1347.00,917.61 1349.59,917.58 1352.75,917.31 C1358.15,916.84 1369.42,918.75 1389.00,923.47 C1397.64,925.55 1398.00,925.48 1398.00,921.63 Z M1107.38,916.62 C1109.89,913.10 1114.30,907.65 1117.18,904.50 L1122.42,898.76 1120.10,896.88 C1118.82,895.85 1117.39,895.00 1116.91,895.00 C1115.80,895.00 1103.16,909.80 1097.92,917.25 L1093.87,923.00 1098.35,923.00 C1102.71,923.00 1102.94,922.83 1107.38,916.62 Z M443.00,918.08 L446.50,917.20 442.75,917.10 C438.64,916.99 437.46,915.00 441.50,915.00 C442.88,915.00 444.00,914.55 444.00,914.00 C444.00,913.45 444.79,912.99 445.75,912.98 C447.25,912.97 447.28,912.83 446.00,911.98 C444.75,911.16 444.88,910.90 446.77,910.38 C448.57,909.89 448.80,909.47 447.90,908.38 C446.99,907.28 447.19,907.00 448.88,907.00 C450.04,907.00 451.00,906.55 451.00,906.00 C451.00,905.45 450.55,905.00 450.00,905.00 C449.45,905.00 449.00,904.55 449.00,904.00 C449.00,903.45 450.24,902.99 451.75,902.97 C454.00,902.94 454.20,902.76 452.85,901.97 C449.43,899.98 429.75,893.88 424.88,893.30 C420.17,892.74 419.65,892.90 417.41,895.60 C412.51,901.51 400.00,917.87 400.00,918.36 C400.00,919.52 406.45,919.82 422.50,919.40 C431.85,919.16 441.07,918.57 443.00,918.08 Z M396.88,911.25 C397.41,910.29 401.45,905.23 405.86,900.01 C413.32,891.18 413.77,890.40 412.28,888.76 C411.41,887.79 410.20,887.00 409.60,887.00 C407.83,887.00 388.00,910.35 388.00,912.42 C388.00,912.74 389.78,913.00 391.96,913.00 C394.71,913.00 396.22,912.46 396.88,911.25 Z M1180.00,900.15 C1180.00,890.89 1182.57,884.79 1188.00,881.20 C1189.92,879.92 1192.26,877.40 1193.20,875.59 C1195.57,870.99 1201.54,866.00 1204.66,866.00 L1207.26,866.00 1206.60,859.25 C1204.79,840.82 1224.80,771.09 1241.39,737.96 C1245.15,730.45 1247.94,723.48 1248.33,720.58 C1248.70,717.92 1249.56,713.89 1250.25,711.62 L1251.50,707.50 1252.02,711.00 C1252.52,714.35 1252.68,714.14 1255.68,705.95 C1261.59,689.85 1261.10,680.29 1253.96,672.14 C1245.81,662.83 1236.05,649.12 1225.58,632.23 C1219.69,622.74 1212.28,611.70 1209.10,607.71 C1198.24,594.04 1176.85,578.43 1158.25,570.61 L1152.21,568.06 1143.35,570.89 C1138.48,572.44 1132.56,574.51 1130.20,575.48 C1124.99,577.63 1124.76,575.85 1133.66,603.00 C1140.73,624.57 1151.06,646.85 1158.21,655.95 C1164.03,663.35 1176.18,675.43 1181.05,678.65 C1183.25,680.10 1184.83,681.50 1184.57,681.76 C1184.17,682.17 1178.76,680.54 1173.84,678.53 C1172.32,677.91 1172.30,678.20 1173.67,682.18 C1175.11,686.34 1177.74,703.61 1180.12,724.50 C1183.49,754.07 1175.44,800.19 1162.34,826.29 C1157.95,835.05 1153.41,848.88 1152.43,856.50 C1151.81,861.33 1151.55,861.94 1151.08,859.64 C1150.52,856.87 1150.36,857.00 1145.50,864.13 C1142.09,869.13 1137.86,873.57 1132.20,878.08 C1120.94,887.05 1120.41,887.89 1123.13,892.49 L1125.27,896.12 1127.88,893.68 C1130.42,891.32 1134.20,889.00 1135.51,889.00 C1135.86,889.00 1135.21,890.19 1134.07,891.63 C1131.24,895.24 1131.45,896.00 1135.32,896.00 C1139.64,896.00 1149.42,898.72 1165.41,904.36 C1172.51,906.87 1178.70,908.69 1179.16,908.40 C1179.62,908.12 1180.00,904.40 1180.00,900.15 Z M471.07,897.75 C471.11,896.51 471.22,892.27 471.32,888.32 C471.52,880.36 473.17,877.10 478.80,873.50 C480.52,872.40 482.42,870.06 483.02,868.30 C484.37,864.37 489.84,859.41 493.78,858.55 C496.63,857.92 496.69,857.79 495.90,853.70 C494.71,847.53 494.83,808.08 496.08,795.42 C498.23,773.74 500.55,763.40 505.47,753.56 C511.34,741.82 511.70,739.64 509.13,731.83 C506.03,722.45 504.23,712.72 503.49,701.50 C502.72,689.88 500.74,677.22 498.24,668.00 L496.48,661.50 483.99,660.88 C469.38,660.16 463.39,659.05 448.66,654.32 C442.70,652.41 437.65,651.01 437.44,651.22 C437.23,651.43 438.20,656.53 439.60,662.55 C445.88,689.65 446.23,692.02 445.59,702.50 C445.26,708.00 445.45,716.21 446.02,720.74 C447.08,729.12 450.77,741.69 452.90,744.15 C455.00,746.57 463.83,761.49 463.42,761.91 C463.19,762.14 462.19,761.57 461.18,760.66 C460.17,759.75 459.15,759.00 458.92,759.00 C458.69,759.00 458.47,766.99 458.43,776.75 C458.35,797.97 456.65,808.75 451.06,823.59 C448.91,829.29 446.68,836.32 446.09,839.22 C445.50,842.13 444.48,847.20 443.81,850.50 C443.02,854.44 442.47,855.69 442.22,854.14 C441.86,851.93 441.68,852.02 439.28,855.64 C435.40,861.50 430.24,866.65 422.34,872.55 C414.20,878.61 412.96,880.87 415.79,884.46 L417.72,886.92 421.06,884.46 C425.20,881.40 426.60,881.31 424.56,884.22 C422.22,887.56 422.58,888.00 427.67,888.00 C430.67,888.00 438.09,889.93 448.42,893.40 C470.84,900.93 470.97,900.96 471.07,897.75 Z M598.78,879.00 C598.70,876.10 596.79,874.91 595.52,876.96 C595.07,877.69 597.39,881.33 598.68,881.92 C598.78,881.96 598.83,880.65 598.78,879.00 Z M1414.38,878.25 C1413.51,874.65 1413.32,874.49 1411.54,875.96 C1410.23,877.06 1410.32,877.44 1412.27,879.07 C1415.15,881.48 1415.15,881.48 1414.38,878.25 Z M1206.00,873.00 C1206.00,871.67 1205.33,871.00 1204.00,871.00 C1201.54,871.00 1201.45,871.86 1203.75,873.61 C1206.02,875.33 1206.00,875.34 1206.00,873.00 Z M490.76,866.84 C491.63,865.97 492.29,866.00 493.46,866.96 C495.11,868.33 495.31,867.64 494.12,864.63 C493.44,862.88 493.21,862.92 490.44,865.35 C488.83,866.77 487.97,867.95 488.55,867.97 C489.13,867.99 490.12,867.48 490.76,866.84 Z M302.00,387.39 C302.00,384.51 301.68,383.91 300.42,384.39 C299.55,384.73 298.41,385.00 297.89,385.00 C297.37,385.00 297.65,386.35 298.50,388.00 C300.58,392.03 302.00,391.78 302.00,387.39 Z M140.45,125.50 C144.33,121.65 147.55,117.69 147.62,116.71 C147.79,114.07 142.51,111.78 135.92,111.63 C129.53,111.48 129.40,111.21 134.77,109.30 C139.92,107.46 147.30,108.54 151.02,111.67 C153.91,114.10 154.00,114.11 156.98,112.35 C160.66,110.18 160.71,109.69 157.40,107.53 C152.88,104.56 143.89,102.00 138.02,102.00 C132.16,102.00 121.91,104.97 114.23,108.88 C108.91,111.60 108.71,114.30 113.26,121.92 C115.04,124.90 117.53,129.17 118.80,131.42 C120.06,133.66 122.49,136.94 124.19,138.70 L127.29,141.90 130.35,137.20 C132.03,134.61 136.58,129.35 140.45,125.50 Z M270.56,101.53 C272.45,100.10 272.44,100.06 270.18,100.03 C268.33,100.01 267.99,99.60 268.50,98.00 C268.88,96.81 268.68,96.00 268.01,96.00 C267.39,96.00 267.18,95.52 267.55,94.92 C267.91,94.33 266.81,92.11 265.11,89.98 C263.40,87.86 262.00,85.86 262.00,85.54 C262.00,85.22 263.78,85.87 265.95,86.97 C268.72,88.39 270.10,88.65 270.59,87.86 C271.04,87.13 271.70,87.51 272.46,88.93 C273.49,90.85 273.80,90.94 274.89,89.63 C275.58,88.80 276.50,86.86 276.95,85.31 L277.76,82.50 278.71,84.92 C279.37,86.57 279.91,86.95 280.42,86.13 C280.83,85.46 280.12,82.80 278.84,80.21 C276.36,75.22 275.40,74.59 257.16,66.07 C253.12,64.18 247.86,61.14 245.47,59.32 C243.08,57.49 240.85,56.00 240.52,56.00 C240.19,56.00 241.06,57.95 242.46,60.34 C243.86,62.72 245.00,64.99 245.00,65.37 C245.00,66.77 238.69,61.39 236.38,58.02 C233.26,53.46 233.36,54.79 236.62,61.28 C240.29,68.60 246.92,77.63 252.91,83.46 C258.57,88.98 259.47,91.51 255.50,90.76 C253.26,90.33 253.00,90.61 253.00,93.45 C253.00,95.19 253.56,97.36 254.25,98.27 C257.53,102.59 266.73,104.43 270.56,101.53 Z M184.00,82.92 C189.31,77.25 189.56,76.78 187.60,76.01 C180.32,73.17 175.85,70.77 171.06,67.15 C168.07,64.90 165.49,63.18 165.33,63.34 C164.97,63.69 170.79,75.01 172.22,76.75 C172.93,77.62 172.90,78.00 172.09,78.00 C171.45,78.00 168.84,75.86 166.28,73.25 L161.64,68.50 164.51,73.81 C167.06,78.53 176.16,89.00 177.71,89.00 C178.03,89.00 180.87,86.26 184.00,82.92 Z M559.00,767.88 C559.00,767.11 559.42,765.03 559.93,763.24 C561.00,759.51 560.47,759.22 557.56,761.93 C556.43,762.99 554.25,764.16 552.72,764.54 C550.23,765.16 550.50,764.67 555.48,759.56 C558.53,756.44 561.45,754.16 561.97,754.48 C563.01,755.12 566.01,749.72 567.96,743.68 C568.64,741.58 569.33,740.01 569.48,740.18 C570.38,741.18 567.60,754.18 565.52,758.74 C562.77,764.75 559.00,770.03 559.00,767.88 Z M1461.06,705.31 C1461.09,704.31 1461.49,701.70 1461.94,699.50 L1462.77,695.50 1462.89,700.69 C1462.95,703.55 1462.55,706.16 1462.00,706.50 C1461.45,706.84 1461.03,706.30 1461.06,705.31 Z M1358.11,665.66 C1352.41,657.78 1349.42,651.22 1347.40,642.20 C1345.49,633.61 1345.99,631.99 1348.47,638.73 C1349.44,641.35 1352.12,647.10 1354.44,651.50 C1358.91,660.00 1363.51,670.85 1362.88,671.40 C1362.67,671.58 1360.52,669.00 1358.11,665.66 Z M931.00,599.92 C944.78,596.83 964.93,591.38 975.00,588.03 C981.33,585.92 988.08,583.91 990.00,583.55 C993.37,582.93 993.43,582.97 991.50,584.57 C988.26,587.28 976.14,592.61 967.00,595.36 C956.95,598.39 948.94,599.69 936.00,600.41 C928.13,600.85 927.27,600.76 931.00,599.92 Z M1238.43,583.69 C1236.27,581.88 1230.67,577.40 1226.00,573.74 C1216.49,566.30 1204.86,555.77 1209.50,558.81 C1211.15,559.89 1214.97,562.21 1218.00,563.98 C1226.85,569.16 1233.41,574.62 1238.43,581.02 C1241.02,584.31 1242.96,587.00 1242.75,587.00 C1242.53,587.00 1240.59,585.51 1238.43,583.69 Z M968.08,583.65 C970.02,582.00 1014.74,564.95 1016.94,565.02 C1017.25,565.03 1013.90,567.13 1009.50,569.70 C995.06,578.12 979.27,584.00 971.12,584.00 C969.22,584.00 967.85,583.84 968.08,583.65 Z M1189.64,562.01 C1185.89,559.82 1180.94,556.59 1178.66,554.85 C1174.49,551.67 1154.00,531.29 1154.00,530.33 C1154.00,530.05 1156.36,531.91 1159.25,534.46 C1163.92,538.59 1171.45,544.58 1189.87,558.86 C1194.62,562.54 1197.97,566.00 1196.78,566.00 C1196.61,566.00 1193.40,564.20 1189.64,562.01 Z M487.02,533.43 C486.95,526.45 495.00,511.27 501.04,506.97 L503.95,504.90 500.33,511.20 C498.34,514.67 494.53,521.55 491.87,526.50 C489.16,531.55 487.03,534.59 487.02,533.43 Z M424.66,526.00 C413.93,514.41 404.80,496.67 401.51,481.04 C400.70,477.22 399.82,469.68 399.54,464.30 L399.04,454.50 400.40,462.00 C402.01,470.85 404.57,479.93 407.02,485.50 C415.13,503.94 422.44,518.84 426.33,524.84 C428.88,528.78 430.79,532.00 430.59,532.00 C430.38,532.00 427.71,529.30 424.66,526.00 Z M1153.13,520.43 C1145.55,514.43 1141.77,512.60 1145.00,516.50 C1145.71,517.35 1146.04,518.30 1145.73,518.60 C1145.43,518.91 1143.36,516.53 1141.13,513.33 C1134.80,504.22 1134.11,503.61 1123.45,497.69 C1110.79,490.66 1104.69,485.81 1097.78,477.27 C1090.07,467.72 1089.77,466.66 1096.58,473.06 C1103.89,479.94 1127.00,495.47 1127.00,493.52 C1127.00,493.21 1125.48,489.92 1123.62,486.23 C1115.55,470.18 1112.01,451.52 1113.93,435.21 C1115.00,426.14 1118.87,408.53 1119.62,409.29 C1119.82,409.49 1119.51,414.57 1118.94,420.57 C1116.85,442.38 1121.25,465.73 1131.14,485.39 C1137.59,498.19 1145.12,508.63 1157.38,521.75 C1160.08,524.64 1162.10,527.00 1161.87,527.00 C1161.64,527.00 1157.70,524.04 1153.13,520.43 Z M356.22,502.91 C352.30,482.42 351.54,471.80 352.89,456.89 C354.32,441.25 356.91,428.48 361.52,414.38 C365.15,403.28 375.03,378.70 375.62,379.29 C375.83,379.49 374.85,383.00 373.46,387.08 C361.41,422.33 354.53,474.32 358.08,503.27 C359.66,516.15 358.71,515.97 356.22,502.91 Z M1333.57,482.50 C1333.90,481.40 1335.70,474.01 1337.56,466.08 C1343.63,440.24 1346.75,417.72 1347.08,397.50 C1347.21,388.90 1347.27,388.70 1348.26,393.00 C1348.83,395.48 1349.34,406.50 1349.39,417.50 C1349.49,439.55 1348.58,445.00 1341.49,464.50 C1338.48,472.79 1332.19,487.09 1333.57,482.50 Z M659.61,429.45 C657.94,413.23 651.56,389.39 643.11,367.88 C638.18,355.33 630.51,339.18 626.78,333.50 C625.05,330.87 625.19,330.93 627.90,334.00 C636.12,343.33 647.21,362.54 652.54,376.69 C656.69,387.72 659.99,405.98 660.68,421.75 C661.33,436.62 660.76,440.72 659.61,429.45 Z M330.10,428.13 C329.95,426.03 334.73,402.98 338.09,389.67 C340.72,379.25 346.34,362.43 353.54,343.50 C356.08,336.81 360.49,322.29 361.52,317.18 C361.89,315.35 362.41,314.07 362.67,314.34 C363.38,315.05 358.28,339.64 354.88,351.90 C353.26,357.73 347.68,375.32 342.49,391.00 C337.29,406.68 332.41,421.75 331.63,424.50 C330.85,427.25 330.16,428.88 330.10,428.13 Z M402.45,398.00 C402.71,396.62 403.65,391.68 404.53,387.00 C410.20,356.98 420.98,330.82 440.97,298.50 C446.07,290.25 450.00,284.18 449.70,285.00 C449.41,285.82 441.76,303.15 432.70,323.50 C416.97,358.88 407.81,381.69 405.00,392.50 C403.55,398.08 401.65,402.16 402.45,398.00 Z M309.23,366.00 C309.51,364.62 311.39,355.40 313.41,345.50 C321.53,305.64 325.96,272.39 326.87,244.50 L327.56,223.50 328.53,233.50 C329.06,239.00 329.45,252.50 329.39,263.50 C329.28,284.48 327.23,302.48 323.01,319.50 C321.92,323.90 321.02,328.74 321.01,330.25 C321.01,331.76 320.54,333.00 319.98,333.00 C318.34,333.00 317.00,337.69 316.60,344.85 C316.35,349.30 315.17,354.15 313.03,359.50 C309.63,367.99 308.40,370.09 309.23,366.00 Z M1131.52,321.27 C1128.85,303.47 1110.94,267.72 1096.17,250.69 C1093.88,248.04 1092.00,245.64 1092.00,245.34 C1092.00,244.04 1104.86,256.10 1109.76,262.00 C1123.00,277.94 1130.46,296.52 1132.57,318.75 C1133.34,326.85 1132.62,328.59 1131.52,321.27 Z M210.50,300.97 C212.15,300.52 218.22,298.96 224.00,297.51 C229.78,296.06 236.73,293.79 239.46,292.47 C242.18,291.16 244.52,290.19 244.65,290.32 C244.78,290.45 242.46,292.34 239.49,294.53 C231.83,300.16 226.17,301.92 216.00,301.85 C209.71,301.81 208.28,301.58 210.50,300.97 Z M146.04,290.08 C144.27,286.78 145.99,281.54 150.60,276.16 C154.92,271.11 155.95,271.27 152.86,276.51 C151.64,278.58 149.89,283.01 148.98,286.36 C147.39,292.16 147.25,292.34 146.04,290.08 Z M470.33,289.50 C470.64,288.40 471.86,283.68 473.04,279.00 C480.76,248.23 492.02,225.38 511.35,201.25 C516.90,194.32 518.17,193.33 515.20,198.25 C504.55,215.89 483.91,257.33 476.49,276.00 C471.11,289.53 468.97,294.23 470.33,289.50 Z M85.41,287.15 C85.80,286.52 86.74,286.00 87.50,286.00 C88.26,286.00 89.19,285.50 89.57,284.89 C90.02,284.15 89.57,284.00 88.20,284.44 C86.50,284.98 82.89,283.87 77.75,281.22 C77.34,281.01 76.99,281.66 76.97,282.67 C76.94,284.40 76.85,284.39 75.47,282.56 C71.40,277.17 77.72,268.02 85.53,268.01 C89.59,268.00 93.00,265.46 93.00,262.44 C93.00,260.66 93.54,260.00 95.01,260.00 C97.67,260.00 100.99,265.52 101.00,269.93 C101.00,274.58 97.48,281.53 93.65,284.45 C90.13,287.13 84.23,289.06 85.41,287.15 Z M291.09,283.79 C291.04,283.39 291.86,280.90 292.90,278.25 C295.72,271.11 299.84,251.74 301.04,240.05 C302.63,224.55 300.58,206.24 294.84,184.71 C293.69,180.42 292.95,176.72 293.18,176.48 C293.42,176.25 295.28,179.98 297.33,184.78 C310.45,215.61 309.89,245.30 295.59,275.24 C293.16,280.33 291.14,284.18 291.09,283.79 Z M420.74,225.22 C419.74,203.23 412.11,175.77 400.95,154.00 C396.12,144.57 395.60,143.13 398.08,146.00 C409.37,159.07 418.56,179.26 421.53,197.50 C423.11,207.22 423.55,235.54 422.14,236.42 C421.66,236.71 421.03,231.67 420.74,225.22 Z M127.00,233.51 C127.00,232.23 130.40,226.34 133.17,222.82 C136.72,218.30 146.73,209.77 145.25,212.53 C143.11,216.51 127.00,235.03 127.00,233.51 Z M441.55,181.26 C438.78,174.49 432.74,163.99 425.42,153.22 C419.66,144.76 419.37,144.11 422.15,145.72 C428.96,149.70 436.12,160.63 440.95,174.44 C444.31,184.06 444.76,189.10 441.55,181.26 Z M182.00,184.21 C182.00,183.77 184.03,181.43 186.50,179.00 C188.97,176.57 191.00,173.89 191.01,173.04 C191.03,169.86 195.81,161.37 199.33,158.29 C203.99,154.19 211.51,151.87 216.48,153.00 C221.26,154.07 222.25,155.08 217.84,154.36 C213.03,153.58 207.09,155.43 203.00,158.97 L199.50,162.00 202.50,160.91 C208.25,158.84 218.68,160.13 229.32,164.22 C232.56,165.46 231.25,166.96 226.88,166.98 C224.58,167.00 224.17,167.51 223.59,171.15 C223.12,174.08 221.83,176.41 219.21,179.02 C214.52,183.72 209.29,184.83 202.93,182.48 C195.57,179.75 194.63,179.75 188.58,182.42 C182.08,185.30 182.00,185.32 182.00,184.21 Z M199.15,174.45 C197.66,171.18 197.44,171.04 196.20,172.70 C192.62,177.49 192.68,178.00 196.84,178.00 L200.76,178.00 199.15,174.45 Z M220.67,171.25 C221.71,168.76 221.83,167.43 221.07,166.67 C220.31,165.91 220.00,166.31 219.99,168.05 C219.99,169.40 219.33,171.75 218.54,173.28 C217.74,174.81 217.56,175.77 218.14,175.41 C218.73,175.05 219.86,173.18 220.67,171.25 Z M210.03,166.50 C209.98,165.00 205.74,165.29 205.22,166.83 C204.92,167.75 205.58,168.06 207.42,167.83 C208.87,167.65 210.05,167.05 210.03,166.50 Z M166.91,173.00 C165.60,159.40 173.00,143.68 184.95,134.70 C191.68,129.64 195.66,128.11 189.64,132.89 C180.10,140.47 173.36,151.67 169.56,166.25 C168.18,171.56 167.05,174.44 166.91,173.00 Z M288.00,141.14 C288.00,140.00 288.88,138.60 289.96,138.02 C293.32,136.22 298.03,128.28 301.06,119.32 C306.90,102.05 316.80,94.05 333.35,93.23 C337.83,93.01 342.61,93.25 343.97,93.76 C345.98,94.53 344.94,94.83 338.35,95.41 C328.79,96.24 320.29,99.87 315.09,105.34 L311.68,108.93 315.59,108.34 L319.50,107.75 313.53,113.88 C310.25,117.24 308.00,119.99 308.53,119.98 C309.06,119.97 313.28,119.29 317.91,118.48 C325.73,117.09 329.76,117.14 325.39,118.57 C320.63,120.13 311.13,125.43 307.50,128.56 L303.50,132.00 306.57,131.41 C308.25,131.09 311.63,131.39 314.07,132.09 L318.50,133.36 313.45,134.05 C309.41,134.60 298.57,138.45 289.25,142.65 C288.47,143.00 288.00,142.43 288.00,141.14 Z M173.00,130.55 C173.00,129.38 193.40,104.10 193.93,104.61 C194.17,104.84 193.83,105.57 193.18,106.22 C192.53,106.87 192.00,108.01 192.00,108.75 C192.00,109.64 193.44,109.12 196.25,107.22 C202.88,102.73 203.92,102.52 199.00,106.66 C196.53,108.75 189.66,115.16 183.75,120.92 C177.84,126.68 173.00,131.01 173.00,130.55 Z M270.00,125.46 C270.00,124.29 274.04,117.10 275.05,116.47 C275.64,116.11 274.92,118.10 273.46,120.90 C271.02,125.56 270.00,126.90 270.00,125.46 Z M318.50,105.00 C321.25,103.82 322.83,103.82 321.00,105.00 C320.18,105.53 318.82,105.94 318.00,105.91 C317.01,105.88 317.18,105.57 318.50,105.00 Z" fill="#082A54" fill-rule="evenodd" pointer-events="none" id="beef-linework"/>
  <text x="380" y="275" font-family="Arial, Helvetica, sans-serif" font-size="29" font-weight="700" text-anchor="middle" fill="#082A54" pointer-events="none">Neck</text>
  <text x="410" y="457" font-family="Arial, Helvetica, sans-serif" font-size="29" font-weight="700" text-anchor="middle" fill="#082A54" pointer-events="none">Shoulder</text>
  <text x="578" y="306" font-family="Arial, Helvetica, sans-serif" font-size="29" font-weight="700" text-anchor="middle" fill="#082A54" pointer-events="none">Chuck</text>
  <text x="575" y="526" font-family="Arial, Helvetica, sans-serif" font-size="29" font-weight="700" text-anchor="middle" fill="#082A54" pointer-events="none">Blade</text>
  <text x="491" y="614" font-family="Arial, Helvetica, sans-serif" font-size="29" font-weight="700" text-anchor="middle" fill="#082A54" pointer-events="none">Brisket</text>
  <text x="817" y="366" font-family="Arial, Helvetica, sans-serif" font-size="29" font-weight="700" text-anchor="middle" fill="#082A54" pointer-events="none">Ribs</text>
  <text x="801" y="508" font-family="Arial, Helvetica, sans-serif" font-size="29" font-weight="700" text-anchor="middle" fill="#082A54" pointer-events="none">Plate</text>
  <text x="1037" y="307" font-family="Arial, Helvetica, sans-serif" font-size="29" font-weight="700" text-anchor="middle" fill="#082A54" pointer-events="none">Loin</text>
  <text x="1031" y="532" font-family="Arial, Helvetica, sans-serif" font-size="29" font-weight="700" text-anchor="middle" fill="#082A54" pointer-events="none">Flank</text>
  <text x="1236" y="241" font-family="Arial, Helvetica, sans-serif" font-size="29" font-weight="700" text-anchor="middle" fill="#082A54" pointer-events="none">Rump</text>
  <text x="1265" y="424" font-family="Arial, Helvetica, sans-serif" font-size="29" font-weight="700" text-anchor="middle" fill="#082A54" pointer-events="none">Round</text>
  <text x="230" y="287" font-family="Arial, Helvetica, sans-serif" font-size="23" font-weight="700" text-anchor="middle" fill="#082A54" pointer-events="none">Cheek</text>
  <text x="819" y="263" font-family="Arial, Helvetica, sans-serif" font-size="23" font-weight="700" text-anchor="middle" fill="#082A54" pointer-events="none">Rib Eye</text>
  <text x="802" y="599" font-family="Arial, Helvetica, sans-serif" font-size="23" font-weight="700" text-anchor="middle" fill="#082A54" pointer-events="none">Skirt</text>
  <text x="1260" y="510" font-family="Arial, Helvetica, sans-serif" font-size="22" font-weight="700" text-anchor="middle" fill="#082A54" pointer-events="none">Silverside /</text>
  <text x="1260" y="535" font-family="Arial, Helvetica, sans-serif" font-size="22" font-weight="700" text-anchor="middle" fill="#082A54" pointer-events="none">Outside</text>
  <path d="M573 823 H701" fill="none" stroke="#082A54" stroke-width="1.8" pointer-events="none"/>
  <path d="M1370 823 H1450" fill="none" stroke="#082A54" stroke-width="1.8" pointer-events="none"/>
  <path d="M1445 562 L1520 534" fill="none" stroke="#082A54" stroke-width="1.8" pointer-events="none"/>
  <g id="cut-ox-tail-box" class="cut-hit ox-tail" data-cut="ox-tail" data-animal="Beef" aria-label="Ox Tail" role="button" tabindex="0" aria-pressed="false">
    <title>Ox Tail</title>
    <rect x="1520" y="500" width="128" height="68" rx="14" fill="white" stroke="#082A54" stroke-width="2" pointer-events="visibleFill" class="surface" data-hit-shape="true"/>
    <text x="1584.0" y="543" font-family="Arial, Helvetica, sans-serif" font-size="25" font-weight="700" text-anchor="middle" fill="#082A54" pointer-events="none">Ox Tail</text>
  </g>
  <g id="cut-misc-offal" class="cut-hit misc-offal-other" data-cut="misc-offal-other" data-animal="Beef" aria-label="Miscellaneous / Offal &#183; Other" role="button" tabindex="0" aria-pressed="false">
    <title>Miscellaneous / Offal &#183; Other</title>
    <rect x="534" y="1014" width="618" height="68" rx="14" fill="white" stroke="#082A54" stroke-width="2" pointer-events="visibleFill" class="surface" data-hit-shape="true"/>
    <text x="843.0" y="1057" font-family="Arial, Helvetica, sans-serif" font-size="28" font-weight="700" text-anchor="middle" fill="#082A54" pointer-events="none">Miscellaneous / Offal &#183; Other</text>
  </g>
  <script><![CDATA[
(()=>{const root=document.currentScript.ownerSVGElement;const hits=Array.from(root.querySelectorAll('[data-cut]'));function select(target){const cut=target.getAttribute('data-cut');hits.forEach(g=>{const on=g.getAttribute('data-cut')===cut;g.classList.toggle('is-selected',on);g.setAttribute('aria-pressed',String(on));});root.dispatchEvent(new CustomEvent('cutlink:cut-selected',{bubbles:true,composed:true,detail:{animal:'Beef',id:target.id,cut}}));}hits.forEach((g,i)=>{g.addEventListener('click',()=>select(g));g.addEventListener('keydown',e=>{if(e.key==='Enter'||e.key===' '){e.preventDefault();select(g);}else if(['ArrowRight','ArrowDown','ArrowLeft','ArrowUp','Home','End'].includes(e.key)){e.preventDefault();const n=e.key==='Home'?0:e.key==='End'?hits.length-1:(i+(['ArrowRight','ArrowDown'].includes(e.key)?1:-1)+hits.length)%hits.length;hits[n].focus();}});});})();
]]></script>
</svg>
